<svg xmlns="http://www.w3.org/2000/svg" width="20.114" height="18.203" viewBox="0 0 20.114 18.203"><g transform="translate(0.489 0.446)"><g opacity="0.85"><path d="M240.725,114.114l-.443-.448c.078.071.158.14.244.207A1.157,1.157,0,0,1,240.725,114.114Z" transform="translate(-234.639 -100.099)" fill="#090808"/><path d="M238.754,112.095l-.079-.079-.06-.074Z" transform="translate(-233.521 -98.942)" fill="#090808"/><path d="M236.78,109.959c.138.136.264.272.384.406A5.406,5.406,0,0,1,236.78,109.959Z" transform="translate(-232.291 -97.613)" fill="#090808"/><path d="M238.184,111.4c-.057-.039-.091-.052-.021.035l0,0-.22-.247C238.032,111.273,238.112,111.343,238.184,111.4Z" transform="translate(-233.073 -98.439)" fill="#090808"/><path d="M238.67,111.825l.166.124C238.786,111.914,238.73,111.873,238.67,111.825Z" transform="translate(-233.558 -98.865)" fill="#090808"/><path d="M233.959,104.534c-.066-.09-.12,0-.251-.18-.325-.4-.582-.757-.9-1.117-.125-.18-.442-.356-.567-.537-.319-.407-1-1.526-.525-.925.7.906,1.185,1.493,1.862,2.284.534.66,1.053,1.292,1.62,1.952.162.182.32.345.478.511l-.664-.671C234.694,105.542,234.409,105.069,233.959,104.534Z" transform="translate(-228.789 -92.009)" fill="#090808"/><path d="M248.884,122.376l-.216-.247c-.348-.344-.7-.72-1.039-1.1l.173.15c.2.217.213.249.027.066.43.416.809.835,1.2,1.266A.86.86,0,0,1,248.884,122.376Z" transform="translate(-239.566 -105.034)" fill="#090808"/><path d="M252.092,125.776l-.227-.252.01.008.226.253Z" transform="translate(-242.407 -108.051)" fill="#090808"/><path d="M226.143,83.039a14.177,14.177,0,0,1-2.359-3.437.712.712,0,0,0-.088-.3,1.852,1.852,0,0,1-.15-.282,5,5,0,0,1-.18-.563l-.036-.206v-.006c-.009-.111.02-.083.055-.022a1.866,1.866,0,0,0,.095.188l-.095-.188a1.966,1.966,0,0,1-.107-.3c-.013-.18-.03-.366-.061-.558a3.782,3.782,0,0,0,.061.558c.014.113.035.22.052.329l.009.1a4.432,4.432,0,0,1-.132-.664l-.045-.336c-.009-.113-.007-.226-.012-.339l.01-.284a5.189,5.189,0,0,0,.09-.854l.05-.24,0,.049.008-.093.166-.491c.069-.159.149-.314.223-.472.068-.091.148-.176.221-.264a2.4,2.4,0,0,1,.234-.254l.1-.221c.083-.053.2-.126.322-.222l-.15.223c-.04.077-.077.15-.116.217-.1.2-.417.321-.448.617.031-.3.351-.416.448-.617.039-.067.076-.14.116-.217l.15-.223.2-.165c.073-.052.147-.108.22-.167.141-.126.3-.225.437-.338a1.513,1.513,0,0,0-.513.293c-.07.059-.134.119-.194.179s-.1.134-.148.2c-.123.1-.239.169-.322.222l-.1.221a2.4,2.4,0,0,0-.234.254c-.073.088-.154.173-.221.264a4.089,4.089,0,0,1,4.661-2,4.577,4.577,0,0,1,1.5.693,6.094,6.094,0,0,1,1.211,1.107c.161.22.34.429.484.661s.3.458.415.706.255.485.352.741l.152.382a2.274,2.274,0,0,1,.1.264l.175.527c.007.043.015-.018.022-.03l.023-.068.045-.135.09-.269c.025-.092.07-.172.1-.26.012-.036.041-.1.071-.168l.085-.194c.107-.263.262-.506.391-.762.146-.275.331-.527.493-.789.2-.238.364-.5.582-.717a5.986,5.986,0,0,1,1.4-1.165,4.439,4.439,0,0,1,3.5-.5,4.15,4.15,0,0,1,2.637,2.343,5.579,5.579,0,0,1,.248,3.531A9.986,9.986,0,0,1,240.97,81.7a30.582,30.582,0,0,1-2.145,2.771c-1.185,1.386-3.663,3.595-4.9,4.81-.859.786-1.06.986-1.057.956s.2-.291.231-.336c.415-.581.789-1.1,1.3-1.74s1.176-1.4,2.068-2.557c-.613.782-.34.536.234-.084a17.558,17.558,0,0,0,1.924-2.428,44.216,44.216,0,0,0,2.32-3.873,6.739,6.739,0,0,0,.651-2.262,4.035,4.035,0,0,0-.411-2.22,3.323,3.323,0,0,0-3.526-1.792,4.156,4.156,0,0,0-1.652.659,6.512,6.512,0,0,0-2.227,2.807,3.437,3.437,0,0,0-.177.423l-.081.215-.074.188a1.493,1.493,0,0,0-.082.235,3.328,3.328,0,0,1-.3.808l-.312.682-.078.17c-.006.008-.013.042-.019.028l-.018-.047-.037-.094-.146-.376-.29-.75L232.1,77.7l-.088-.209-.093-.214-.073-.163-.2-.419a8.514,8.514,0,0,0-1.008-1.527,6.73,6.73,0,0,0-.622-.655,5.548,5.548,0,0,0-.718-.524,3.856,3.856,0,0,0-3.169-.549,2.968,2.968,0,0,0-.971.581,4.381,4.381,0,0,0-1.184,2.025,4.771,4.771,0,0,0-.127.629c-.024.21-.033.422-.044.632a4.5,4.5,0,0,1,.135-1.263,3.81,3.81,0,0,1,.519-1.2c.18-.273.086-.207-.1-.018a2.8,2.8,0,0,0-.488.758.651.651,0,0,0-.048.354,1.391,1.391,0,0,1-.023.353c-.016.213-.075.413-.082.627l-.033.326c-.006.112,0,.227,0,.347-.008.208.128.163.126.265.058.317.05.614.1.876.02.132.04.258.066.375a1.49,1.49,0,0,0,.126.316c.076.145.142.285.217.416l.236.373c.09.157.18.313.286.475l.172.328a.318.318,0,0,0-.206-.064c.106.148.264.348.382.488-.118-.14-.276-.34-.382-.488a.318.318,0,0,1,.206.064,17.476,17.476,0,0,0,1.674,2.422l-.016,0c-.375-.439-.742-.86-1.176-1.279.182.185.188.139.013-.1l-.189-.139a5.149,5.149,0,0,0,.977,1.154l.187.273c.12.111.142.082.187.087l.218.261C226.7,83.559,226.143,83.039,226.143,83.039Z" transform="translate(-223.151 -72.479)" fill="#090808"/><path d="M223.31,87.232c.006.079.029.174.047.276a3.526,3.526,0,0,1-.1-.556l-.038-.282c-.009-.094-.007-.189-.011-.284A4.5,4.5,0,0,1,223.31,87.232Z" transform="translate(-223.189 -81.805)" fill="#090808"/></g></g><g transform="translate(0 0)"><g opacity="0.85"><path d="M262.261,113.606l.425-.465c-.068.082-.131.165-.194.254A1.156,1.156,0,0,1,262.261,113.606Z" transform="translate(-248.89 -99.301)" fill="#090808"/><path d="M264.738,111.532l.075-.083.071-.065Z" transform="translate(-250.551 -98.124)" fill="#090808"/><path d="M266.271,109.438c-.127.146-.256.28-.381.407A5.314,5.314,0,0,1,266.271,109.438Z" transform="translate(-251.323 -96.818)" fill="#090808"/><path d="M265.221,110.925c.036-.059.047-.094-.036-.019l0,0,.234-.234C265.339,110.766,265.274,110.85,265.221,110.925Z" transform="translate(-250.848 -97.648)" fill="#090808"/><path d="M265.068,111.434l-.114.172C264.985,111.555,265.024,111.5,265.068,111.434Z" transform="translate(-250.696 -98.157)" fill="#090808"/><path d="M262.769,105.948c.086-.071,0-.12.165-.263.377-.35.719-.634,1.05-.985.172-.141.312-.481.478-.626.372-.357,1.365-1.266.848-.675-.79.879-1.345,1.4-2.089,2.142-.626.579-1.233,1.128-1.863,1.728-.173.171-.328.337-.485.5l.635-.7C261.8,106.738,262.26,106.43,262.769,105.948Z" transform="translate(-247.959 -92.638)" fill="#090808"/><path d="M252.63,122.27l.224-.24c.311-.378.655-.76,1.014-1.127l-.137.184c-.2.213-.233.231-.064.032-.382.46-.766.875-1.153,1.3A.858.858,0,0,1,252.63,122.27Z" transform="translate(-242.353 -104.506)" fill="#090808"/><path d="M251.806,125.771l.228-.252-.007.01-.229.251Z" transform="translate(-241.873 -107.602)" fill="#090808"/><path d="M238.239,82.083a12.947,12.947,0,0,0,2.309-3.435.712.712,0,0,0,.165-.27c.016-.106.031-.212.055-.313a4.7,4.7,0,0,0,.161-.556l.056-.2,0-.005c.04-.1.054-.067.059,0a2.08,2.08,0,0,0,0,.212c0-.04,0-.143,0-.212,0-.094.014-.2.028-.314.029-.174.056-.359.07-.549a3.713,3.713,0,0,0-.07.549c-.026.109-.06.212-.089.316l-.033.089a4.224,4.224,0,0,0,.108-.65l.033-.327c.006-.109,0-.219,0-.328l.014-.275a1.666,1.666,0,0,0-.146-.811l-.055-.226.022.04-.032-.081-.172-.459c-.07-.147-.15-.291-.224-.436-.041-.1-.092-.193-.139-.293a1.5,1.5,0,0,0-.166-.288l-.2-.124a.841.841,0,0,0-.211-.308l.234.131c.069.05.135.1.2.149.218.128.192.487.447.642-.255-.155-.229-.514-.447-.642-.062-.05-.128-.1-.2-.149l-.234-.131a1.987,1.987,0,0,0-.18-.175c-.071-.051-.147-.1-.224-.15a1.792,1.792,0,0,0-.483-.214c.163.12.322.206.465.3.074.044.147.082.221.118l.2.121a.841.841,0,0,1,.211.308l.2.124a1.5,1.5,0,0,1,.166.288c.047.1.1.2.139.293a3.813,3.813,0,0,0-4.321-1.757,4.284,4.284,0,0,0-1.376.642,5.941,5.941,0,0,0-1.14,1.027c-.154.208-.328.4-.47.62s-.294.432-.411.668-.257.46-.357.707l-.156.367c-.062.153-.145.329-.194.481l-.333.95-.011.03c0,.007-.007-.014-.011-.02l-.022-.057-.045-.113-.09-.228-.181-.459c-.062-.133-.121-.355-.193-.523l-.17-.412c-.1-.26-.245-.5-.366-.752-.138-.271-.315-.518-.47-.776l-.273-.357a2.866,2.866,0,0,0-.287-.343,5.459,5.459,0,0,0-1.356-1.117,3.836,3.836,0,0,0-3.273-.336,3.541,3.541,0,0,0-2.1,2.243,4.22,4.22,0,0,0-.211,1.512,6.082,6.082,0,0,0,.242,1.516,14.267,14.267,0,0,0,3.618,5.366c.6.649,1.446,1.61,2.257,2.6s1.576,2.016,2.073,2.733c.324.488.508.8.621.985s.142.24.128.236-.246-.254-.284-.293c-.483-.525-.941-.968-1.506-1.561s-1.267-1.31-2.36-2.274c.736.665.512.376-.068-.239s-1.521-1.552-2.253-2.168a11.363,11.363,0,0,1-1.594-1.625,9.084,9.084,0,0,1-1.352-2.264,6.872,6.872,0,0,1-.533-2.786,5.375,5.375,0,0,1,.8-2.71,4.321,4.321,0,0,1,4.392-1.845,5.161,5.161,0,0,1,1.842.754,8.047,8.047,0,0,1,2.556,2.926,4.108,4.108,0,0,1,.226.434l.105.221c.027.053.009.026.012.038s0,.007,0,.006.011.028.019.047.013-.015.021-.027a.019.019,0,0,0,0-.018c0-.006,0,0,0,0h0l.02-.056.171-.478a9.029,9.029,0,0,1,.994-1.836,7.511,7.511,0,0,1,.692-.845,6.62,6.62,0,0,1,.865-.729,4.627,4.627,0,0,1,2.181-.8,4.569,4.569,0,0,1,2.121.306,5.543,5.543,0,0,1,1.352.721,4.341,4.341,0,0,1,.967,1.011,4.277,4.277,0,0,1,.684,1.686,4.841,4.841,0,0,1,.084.825,7.79,7.79,0,0,1-.047.785,5.736,5.736,0,0,0-.07-1.6,4.516,4.516,0,0,0-.627-1.617c-.248-.373-.194-.215-.05.09a6.392,6.392,0,0,1,.363,1.065,3.407,3.407,0,0,0,.163.4,1.068,1.068,0,0,1,.133.415,3.359,3.359,0,0,1,.019.77l-.038.385c-.02.129-.052.259-.077.394-.061.228.085.223.052.339a4.158,4.158,0,0,1-.364.937c-.068.132-.131.255-.184.373a2.9,2.9,0,0,0-.153.334c-.064.164-.119.323-.183.472l-.2.427a3.164,3.164,0,0,1-.3.512l-.248.307a.325.325,0,0,0-.016-.224c-.1.159-.22.4-.332.549.112-.15.233-.39.332-.549a.325.325,0,0,1,.016.224c-.6.736-1.353,1.494-2.051,2.2v-.017a8.488,8.488,0,0,0,1.081-1.368c-.141.22-.095.217.1-.01l.092-.217a8.226,8.226,0,0,0-.958,1.178l-.248.221c-.1.132-.065.151-.065.2l-.236.247c.061-.107.2-.315.33-.5Z" transform="translate(-221.667 -71.126)" fill="#090808"/><path d="M280.435,87.211c-.014.077-.044.169-.068.267a3.412,3.412,0,0,0,.08-.548l.027-.275c.006-.092,0-.185,0-.277A1.763,1.763,0,0,1,280.435,87.211Z" transform="translate(-261.032 -81.354)" fill="#090808"/></g></g></svg>