<svg xmlns="http://www.w3.org/2000/svg" width="304.285" height="78.069" viewBox="0 0 304.285 78.069"><g transform="translate(-157.241 -138.383)"><path d="M183,182.469a.179.179,0,0,0,.248-.071c.071-.093.057-.163-.035-.212a.683.683,0,0,0,.141-.316,1.647,1.647,0,0,1,.141-.457l-.141.141a.441.441,0,0,0-.354,0c-.139.046-.188.022-.139-.071a1.7,1.7,0,0,0,.914-.424,14.875,14.875,0,0,1,.879-2.285,10.944,10.944,0,0,0,.811-2.288h.141q1.616-5.489,3.167-11.438a95.105,95.105,0,0,0,2.324-12.143q.139-1.408.28-2.816a26.858,26.858,0,0,1,.422-2.745,2.069,2.069,0,0,0,.038-.634,1.222,1.222,0,0,1,.1-.631,20.313,20.313,0,0,1,.318-2.606,3.824,3.824,0,0,0-.318-2.462c0-.093.035-.117.106-.071a.583.583,0,0,0,.316.071c-.234-.329-.21-.541.071-.634a.326.326,0,0,1,.354.071,1.106,1.106,0,0,0,.28.21,6.064,6.064,0,0,0,1.126-.1,3.168,3.168,0,0,1,1.056-.035,1.386,1.386,0,0,1,.843.209,6.2,6.2,0,0,1,.634.563,16.025,16.025,0,0,1,.177,1.619,9.039,9.039,0,0,1-.106,1.69l-.209.775a.6.6,0,0,0,.071.28.644.644,0,0,1,.068.283q-.069.775-.1,1.583c-.024.541-.035,1.091-.035,1.654a1.185,1.185,0,0,0-.071.7c.046.237.093.471.141.7a7.911,7.911,0,0,0-.212.917c-.046.28-.1.563-.141.843a31.148,31.148,0,0,1-.422,3.1,13.891,13.891,0,0,1-.846,2.816,2.05,2.05,0,0,1-.071,1.2c-.139.375-.28.751-.419,1.126-.1.609-.166,1.2-.212,1.76a5.663,5.663,0,0,1-.422,1.69.543.543,0,0,0-.035.351.386.386,0,0,1-.106.351.474.474,0,0,0,.035.212.516.516,0,0,1,.035.212,2.52,2.52,0,0,0-.354,1.371,5.939,5.939,0,0,1-.21,1.583c-.049.1-.106.212-.177.354a.821.821,0,0,0-.106.351,22.267,22.267,0,0,0-.563,2.394q-.208,1.2-.422,2.392a1.092,1.092,0,0,0,.283-.95,1.085,1.085,0,0,1,.28-.95.3.3,0,0,1,0-.389,1.229,1.229,0,0,0,.212-.457,16.245,16.245,0,0,1-.6,2.957c-.307,1.031-.574,2.019-.811,2.955.046.1.188.1.422,0-.093.1-.117.166-.071.212s.049.117,0,.212a7.766,7.766,0,0,0,1.551-.424q1.265-.42,2.71-.914c.96-.326,1.853-.634,2.674-.914s1.347-.468,1.583-.563a.186.186,0,0,1,.21.212c.1-.237.294-.258.6-.071a.742.742,0,0,0,.808.071,2.84,2.84,0,0,1,1.69-.531q1.053-.033,2.111.035c0,.1-.024.131-.071.106s-.071-.011-.071.035a1,1,0,0,0,.424.071c.046.046,0,.082-.141.106a1.329,1.329,0,0,0-.354.106c0,.092.117.139.354.139a7.179,7.179,0,0,1-1.654.74,4.318,4.318,0,0,0-1.374.669.306.306,0,0,0,.283,0,.984.984,0,0,1,.422-.071,3.266,3.266,0,0,0-.914.492c-.237.188-.446.351-.634.492-.141.049-.2.035-.177-.035a.161.161,0,0,0-.035-.177,2.907,2.907,0,0,1-.245.212,4.228,4.228,0,0,0-.318.28c-.093-.092-.1-.15-.033-.174s.1-.057.1-.106c-.375.1-1.045.3-2.005.634s-1.983.68-3.064,1.056-2.087.751-3.025,1.126a18.752,18.752,0,0,0-1.9.843c.142.1.248.106.318.035a.426.426,0,0,1,.316-.106.51.51,0,0,1-.174.212,1.113,1.113,0,0,0-.177.141c0,.046.011.06.035.035s.011.011-.035.1q-.069.073-.106,0c-.024-.044-.082-.068-.177-.068a.276.276,0,0,0,.212.28,3.28,3.28,0,0,1-.95.492,4.358,4.358,0,0,0-1.091.563q-.212.563-.389,1.2a4.687,4.687,0,0,1-.525,1.2,5.772,5.772,0,0,1-.563,1.937c-.283.536-.566,1.113-.846,1.722a1,1,0,0,0-.528.775,1.011,1.011,0,0,1-.528.773.293.293,0,0,1-.035.177c-.025.022.011.06.106.106a.392.392,0,0,1-.248.139.683.683,0,0,0-.316.141,6.866,6.866,0,0,0-.914,1.76,5.258,5.258,0,0,1-1.056,1.76A2.325,2.325,0,0,1,183,195.1a1.876,1.876,0,0,0-.492,1.091,1.285,1.285,0,0,0-.457.669,2.084,2.084,0,0,1-.386.74,1.061,1.061,0,0,1-.492.351c-.1.327-.212.669-.351,1.02a6.209,6.209,0,0,1-.424.879l-.177.177a.814.814,0,0,0-.1.177c-.1.28-.188.422-.283.422a17.637,17.637,0,0,1-1.619,2.253,2.108,2.108,0,0,1-.563.914l-.843.843c.046.049.022.117-.071.212a3.649,3.649,0,0,0-.6.775c-.166.28-.316.539-.457.773a12.173,12.173,0,0,0,1.828-2.147,14.193,14.193,0,0,1,1.76-2.147,1.982,1.982,0,0,1-.071-.422,10.179,10.179,0,0,0,1.058-1.442,13.545,13.545,0,0,1,1.053-1.513c-.092-.1-.092-.155,0-.177a.168.168,0,0,0,.141-.177.623.623,0,0,0,.177-.318.517.517,0,0,1,.245-.316l-.139-.139a2.127,2.127,0,0,0,.773-1.129,2.036,2.036,0,0,1,.846-1.126,1.689,1.689,0,0,1,.28-.773,2.8,2.8,0,0,0,.354-.634c.046.093.082.106.1.035s.038-.06.038.035q-.355.775-.74,1.477t-.74,1.48a9.353,9.353,0,0,0-1.3,2.005,20.4,20.4,0,0,1-1.162,2.076.321.321,0,0,0-.354.071,1.574,1.574,0,0,1-.351.879c-.188.212-.375.411-.563.6a2.539,2.539,0,0,1-.846,1.374,3.086,3.086,0,0,0-.914,1.23c-.1.049-.141.1-.141.141s-.046.046-.142,0c.049.093.038.152-.033.177s-.106.082-.106.177a7.049,7.049,0,0,0-1.126.914,7.3,7.3,0,0,1-1.126.914,1.943,1.943,0,0,0-.318.5.563.563,0,0,1-.525.351,8.462,8.462,0,0,1-1.409,1.232,16.954,16.954,0,0,1-1.619,1.02,2.617,2.617,0,0,0-1.548.808,3.72,3.72,0,0,1-1.548.952c-.1-.19-.212-.248-.354-.177a1.363,1.363,0,0,0-.351.245c-.093,0-.117-.024-.071-.068a.3.3,0,0,0,.071-.212,1.349,1.349,0,0,1-.7.212,3.612,3.612,0,0,0-.7.068,8.442,8.442,0,0,0-1.654.457,1.945,1.945,0,0,1-1.583-.035,1.112,1.112,0,0,1-.811.106c-.256-.071-.6-.152-1.02-.245a.089.089,0,0,0,0-.141,7.682,7.682,0,0,1-1.162-.351c-.351-.141-.691-.283-1.02-.422a.754.754,0,0,1,.351-.071c0,.139.12.21.351.21,0-.237-.1-.362-.316-.386a2.721,2.721,0,0,1-.669-.177.242.242,0,0,0,.106.212c.071.046.106.093.106.141l.071.071h-.071v-.071l-.422-.212c-.188.092-.223.152-.106.177s.131.057.035.106a.285.285,0,0,1-.141-.283v-.811a.39.39,0,0,0-.21-.316,1.358,1.358,0,0,0,.174-.737c-.022-.212-.057-.435-.1-.672-.046-.046.022-.068.209-.068a6.077,6.077,0,0,1,.283-1.866,15.287,15.287,0,0,1,.631-1.654.342.342,0,0,1-.035-.245.155.155,0,0,0-.035-.177c.1,0,.141.024.141.071a.252.252,0,0,0,.141-.248.391.391,0,0,1,.21-.316c.378-.8.729-1.548,1.058-2.253a12.735,12.735,0,0,1,1.2-2.041l-.212.7h-.071q-.7,1.408-1.3,2.851a14.378,14.378,0,0,0-.882,3.064,4.87,4.87,0,0,0,.634-1.409,10.123,10.123,0,0,1,.563-1.548c.188,0,.294-.071.316-.212a1.88,1.88,0,0,1,.177-.492.631.631,0,0,1-.283.071.535.535,0,0,1,.141-.316.524.524,0,0,0,.141-.318c.046-.046.071-.024.071.071.234-.375.5-.773.808-1.2a8.769,8.769,0,0,0,.74-1.2q0-.139-.106-.139c-.071,0-.057-.046.035-.141.237-.046.4-.237.492-.563a1.05,1.05,0,0,1-.106.386c-.071.166-.15.365-.245.6a3.321,3.321,0,0,0,.563-.737,9.386,9.386,0,0,1,.492-.811c-.046-.046-.071-.046-.071,0s-.046.071-.141.071c0-.1.024-.141.071-.141s.071-.046.071-.139a1.87,1.87,0,0,0-.212.245,1.361,1.361,0,0,1-.209.245,4.954,4.954,0,0,1,.631-1.336q.424-.633.775-1.2c.1,0,.131-.046.106-.141s.014-.139.106-.139A5.817,5.817,0,0,1,165.37,195a4.2,4.2,0,0,0,1.091-1.477.394.394,0,0,0,.386-.318.869.869,0,0,1,.316-.457v.283a.087.087,0,0,1-.139,0,.416.416,0,0,0-.071.422,9.107,9.107,0,0,0-1.126,1.2c-.329.422-.656.819-.985,1.2a.844.844,0,0,0-.318.386c-.068.163-.152.34-.245.528a1.66,1.66,0,0,0-.5.422.876.876,0,0,0-.21.386c-.046.166-.117.248-.212.248.049.188.035.294-.033.316s-.109.106-.109.248a1,1,0,0,0,.531-.669,1.47,1.47,0,0,1,.457-.737.232.232,0,0,1,.177-.071c.071,0,.057-.049-.035-.141a.4.4,0,0,0,.454-.177,3.669,3.669,0,0,0,.318-.528c.049-.046.035-.046-.035,0a.952.952,0,0,0-.174.141c-.049-.1-.011-.152.1-.177s.177-.082.177-.174c.049,0,.071.022.071.068a2.642,2.642,0,0,1,.669-.879,2.013,2.013,0,0,0,.6-.879.96.96,0,0,0,.6-.422,5.525,5.525,0,0,0,.389-.634.754.754,0,0,1,.351-.071c.141,0,.212-.12.212-.354a3.922,3.922,0,0,1,.843-.631,1.082,1.082,0,0,0,.563-.846,4.479,4.479,0,0,0,.846-.563c.28-.234.536-.468.773-.7a.987.987,0,0,1-.21.669,2.307,2.307,0,0,1-.492.424,6.1,6.1,0,0,0-.563.386,1.863,1.863,0,0,0-.5.563,3.394,3.394,0,0,0,1.339-1.126,1.085,1.085,0,0,0,.634-.424,1.9,1.9,0,0,1,.843-.563.69.69,0,0,1,.248-.174,1.081,1.081,0,0,0,.316-.245c-.188,0-.234-.014-.141-.038s.1-.131,0-.316a.387.387,0,0,0-.139.245.386.386,0,0,1-.141.248,1.038,1.038,0,0,0-.634.209q-.282.212-.139,0l.28-.28a.916.916,0,0,0,.21-.422,6.717,6.717,0,0,0,.917-.669,2.827,2.827,0,0,1,.914-.528,1.994,1.994,0,0,0-1.2.988.611.611,0,0,0,.424-.212c.046.092-.035.185-.248.28s-.223.212-.035.354c.517-.378,1.031-.716,1.548-1.023a3.753,3.753,0,0,0,1.268-1.23.6.6,0,0,0,.422-.212,1.128,1.128,0,0,1,.422-.283c-.046-.092-.057-.152-.033-.174a.3.3,0,0,0,.033-.177.382.382,0,0,0,.141.177c.046.022.024-.035-.071-.177.1-.046.152-.057.177-.035s.082.035.174.035a5.235,5.235,0,0,1,1.268-.985,1.626,1.626,0,0,1-.773.7.769.769,0,0,0-.5.773q-1.9,1.269-3.659,2.606a32.606,32.606,0,0,0-3.376,2.955,2.455,2.455,0,0,0,.985-.492,4.632,4.632,0,0,0,.775-.843c.092.093.15.106.174.035a.691.691,0,0,1,.174-.248c.049-.046.141,0,.283.141a11.6,11.6,0,0,0,.952-.669q.6-.457,1.088-.879a.665.665,0,0,1,.212-.492,3.314,3.314,0,0,1,.95-.634,2.751,2.751,0,0,0,.949-.7,10.71,10.71,0,0,1,2.394-1.48,5.321,5.321,0,0,1,.879-.6,1.879,1.879,0,0,0,.74-.74c.329-.188.634-.365.914-.528a2.921,2.921,0,0,0,.775-.669.514.514,0,0,0-.212.177.234.234,0,0,1-.209.106,1.849,1.849,0,0,0,.28-.389.979.979,0,0,1,.424-.386q.139.139,0,.212a.223.223,0,0,0-.141.21c.234-.139.433-.258.6-.351a.958.958,0,0,0,.386-.492c.046-.092.022-.106-.071-.035s-.141.06-.141-.035c-.046,0-.068-.046-.068-.141a.4.4,0,0,0,.28-.141Zm-21.888,17.739.21-.424v.141Zm.21-.424a.892.892,0,0,1,.177-.528q.176-.245.245-.106Zm4.084,10.067c.046-.046.071-.082.071-.106s.022-.06.068-.106a.063.063,0,0,1,.071-.071h.141a.242.242,0,0,1,.141-.386,1.213,1.213,0,0,0,.422-.245,9.625,9.625,0,0,0,.843-.669c.237-.212.471-.435.7-.669a.93.93,0,0,1,.422-.351.939.939,0,0,0,.354-.212c.234-.234.482-.482.737-.74s.506-.5.74-.737a4.574,4.574,0,0,1,.386-.563,2.162,2.162,0,0,0,.318-.563,21.274,21.274,0,0,0,1.758-2.182q.845-1.2,1.622-2.394a.425.425,0,0,0,.28-.245.421.421,0,0,1,.283-.248,1.39,1.39,0,0,1,.351-.843,1.422,1.422,0,0,0,.351-.846,4.029,4.029,0,0,0,.985-1.3,4.658,4.658,0,0,1,.917-1.3,33.019,33.019,0,0,1,2.041-4.293,33.024,33.024,0,0,0,2.041-4.293.942.942,0,0,1-.631-.141.977.977,0,0,0,.419-.071,2.8,2.8,0,0,1,.354-.141.734.734,0,0,0,.318-.492,1.661,1.661,0,0,1,.174-.563,1.439,1.439,0,0,0-.457.351q-.175.212-.318.212c-.092.046-.117.082-.071.106s.025.082-.068.177c-.046,0-.06-.035-.035-.106s.011-.106-.035-.106a1.37,1.37,0,0,1-.914.669,1.514,1.514,0,0,0-.917.528c-.234.141-.468.291-.7.457a5.125,5.125,0,0,0-.7.6.2.2,0,0,0-.141-.071,6.1,6.1,0,0,0-.737.528,6.251,6.251,0,0,1-.74.528.232.232,0,0,0-.071.177c0,.071-.024.106-.071.106a2.6,2.6,0,0,0-1.091.7,3.136,3.136,0,0,1-1.162.775,3.361,3.361,0,0,1-.843,1.02c-.329.258-.68.528-1.058.811q-.984.914-1.934,1.9t-2.005,1.972a7.583,7.583,0,0,1-1.162,1.722,9.984,9.984,0,0,0-1.232,1.725c.237-.046.378-.141.424-.28a.641.641,0,0,1,.351-.354,4.359,4.359,0,0,1,1.194-1.548q.706-.845,1.515-1.76t1.583-1.687c.283-.283.55-.541.808-.775a2.838,2.838,0,0,1,1.162-.563,1.058,1.058,0,0,1-.422.528c-.188.117-.351.223-.492.318-.7.748-1.42,1.488-2.147,2.217s-1.42,1.464-2.076,2.217c-.283.373-.6.759-.952,1.159a3.628,3.628,0,0,0-.737,1.232q-.351.771-.775,1.548a8.667,8.667,0,0,0-.7,1.76,1.9,1.9,0,0,0-.6,1.268,4.01,4.01,0,0,1-.46,1.477,2.251,2.251,0,0,1-.245,1.091c-.163.3-.34.62-.528.95a4.57,4.57,0,0,0-.422.985,1.877,1.877,0,0,0,.071,1.126.561.561,0,0,0,.351-.068,1.859,1.859,0,0,0,1.513-.389A1.885,1.885,0,0,1,165.406,209.85Zm2.25,1.69a.4.4,0,0,0-.28.071l-.212.212c.141-.1.237-.131.283-.106S167.563,211.681,167.656,211.539Zm1.622-19.567c-.234.139-.4.245-.5.316a1.127,1.127,0,0,0-.28.457.682.682,0,0,0,.492-.316C169.09,192.263,169.182,192.111,169.277,191.972Zm.843,15.7c-.188-.046-.3-.014-.351.106s-.1.22-.141.316a1.553,1.553,0,0,0-.528.318,2.586,2.586,0,0,0-.318.386,2.743,2.743,0,0,0,.7-.492Zm.351,1.831c-.046-.237-.046-.34,0-.318s.117-.011.212-.106a.556.556,0,0,0,.071-.351c0-.046.046-.071.141-.071a.638.638,0,0,0,.28-.071c.092-.141.177-.258.248-.351a2.078,2.078,0,0,1,.245-.28,4.946,4.946,0,0,1,.811-.882,4.424,4.424,0,0,0,.667-.669.063.063,0,0,0,.071.071,1.223,1.223,0,0,1,.389-.457.563.563,0,0,0,.174-.6q-.775.914-1.69,1.866a13.8,13.8,0,0,1-1.9,1.654c-.1.468-.234.68-.422.631a.741.741,0,0,1-.283.5,2.053,2.053,0,0,0-.351.28,3.377,3.377,0,0,0,.914-.492h.071c.234-.234.258-.4.071-.492.093,0,.141.011.141.035S170.379,209.45,170.472,209.5Zm3.1-6.056c0,.1-.035.141-.106.141s-.106.046-.106.141h.283c-.142.188-.258.351-.354.492a.285.285,0,0,1-.351.141,6.67,6.67,0,0,0-.6.669c-.166.212-.389.5-.669.879a.2.2,0,0,1-.139-.071,1.626,1.626,0,0,1-.389.5,5.212,5.212,0,0,1-.457.351.384.384,0,0,1-.248.386.444.444,0,0,0-.245.457,8.128,8.128,0,0,0,1.2-1.162,10.435,10.435,0,0,1,1.124-1.162c.049.049.038.1-.033.141s-.082.093-.035.141a4.7,4.7,0,0,1,.914-1.056,2.1,2.1,0,0,0,.7-1.126.062.062,0,0,1,.071-.071.155.155,0,0,1,.033-.106.142.142,0,0,0,.038-.1l.139-.141c0,.093.024.141.071.141,0-.283.117-.424.354-.424a.833.833,0,0,1,.174-.6c.117-.117.223-.223.318-.316-.049-.049-.106-.049-.177,0s-.106.046-.106,0a2.887,2.887,0,0,1-.634.914c-.28.283-.539.539-.773.775.093.092.177.092.245,0a.181.181,0,0,1,.248-.071,1.713,1.713,0,0,0-.422.422C173.734,203.538,173.71,203.443,173.571,203.443ZM171.74,191.76a.744.744,0,0,0-.422.245c-.1.117-.212.248-.351.389a4.215,4.215,0,0,0,.525-.318C171.658,191.958,171.74,191.852,171.74,191.76Zm4.574-3.73a10.038,10.038,0,0,0-1.793,1.3c-.539.5-1.069.974-1.583,1.445l1.76-1.407a.58.58,0,0,0,.6-.248,1.4,1.4,0,0,1,.6-.457c-.1-.1-.071-.188.071-.283A1.225,1.225,0,0,0,176.313,188.03Zm-3.1,16.822q.351-.351.811-.808a1.756,1.756,0,0,0,.528-1.02Zm.846-17.034a.289.289,0,0,0-.212.071A.289.289,0,0,1,174.063,187.817Zm.141,15.206c-.049,0-.071.022-.071.071Zm1.69-2.253c.092,0,.114-.024.071-.071a.2.2,0,0,1-.071-.141,3.669,3.669,0,0,1,.49-.386c.237-.166.258-.343.071-.528-.093.092-.117.163-.071.21s.025.071-.071.071a3.717,3.717,0,0,1-.56.7,1.936,1.936,0,0,0-.492.773c.093-.093.141-.128.141-.106s.044-.011.139-.1a.343.343,0,0,0,.177-.245.32.32,0,0,1,.177-.248Zm-.354.563a1.949,1.949,0,0,0-.209.28Zm3.379-14.643a11.859,11.859,0,0,0,1.513-.985q.739-.563,1.654-1.126h.283a1.426,1.426,0,0,1,.139-.316.587.587,0,0,0,.071-.318.323.323,0,0,0-.351.212c-.046.141-.117.163-.212.071a26.563,26.563,0,0,1-2.639,1.725,17.632,17.632,0,0,0-2.568,1.793c-.1.1-.117.163-.071.212-.1,0-.152.022-.177.071s-.082.046-.177,0a.2.2,0,0,1,.071.141,7.6,7.6,0,0,0,1.232-.811,2.063,2.063,0,0,1,1.232-.528Zm-1.9,11.968a.27.27,0,0,0-.28.174.375.375,0,0,0,0,.316.336.336,0,0,1,.106-.245A.93.93,0,0,0,177.018,198.66Zm3.662-2.748-.422.424a.576.576,0,0,0-.141.563,1.223,1.223,0,0,1,.245-.563Q180.537,196.124,180.68,195.912Zm4.576-5.7a.55.55,0,0,0-.424.563c-.28.517-.539,1.031-.773,1.548s-.446,1.009-.634,1.48a16.466,16.466,0,0,1,.843-1.728C184.6,191.488,184.927,190.867,185.256,190.212Zm-1.126,3.167a1.328,1.328,0,0,0,.316-.528,1.073,1.073,0,0,1,.386-.528,1.006,1.006,0,0,1,.354-.843,1.952,1.952,0,0,0,.56-.775,15.433,15.433,0,0,1-.737,1.8,4.575,4.575,0,0,1-1.02,1.442A2.385,2.385,0,0,0,184.13,193.379Zm16.822-16.751c-.237.1-.811.291-1.725.6s-1.877.634-2.887.985-1.959.7-2.851,1.056a7.934,7.934,0,0,0-1.69.811c.329-.1.95-.294,1.866-.6s1.888-.642,2.922-1.02,1.97-.726,2.813-1.056A5.474,5.474,0,0,0,200.952,176.627Zm-.775.21a.453.453,0,0,1,.177-.1c.071-.025.082-.082.035-.177-.1-.046-.131-.025-.106.071s-.011.139-.106.139c-.046,0-.375.1-.985.283s-1.29.4-2.041.634l-2.957.985a1.621,1.621,0,0,1-.634.212.676.676,0,0,0-.563.422,8.615,8.615,0,0,0,1.268-.422c.751-.283,1.548-.574,2.394-.882s1.619-.585,2.323-.843A3.181,3.181,0,0,1,200.177,176.837Zm.351-1.619a.325.325,0,0,0-.351.212Q200.528,175.43,200.528,175.218Zm-.071,1.268v.209c.1-.044.188-.092.283-.139s.141-.163.141-.354Zm.988.071c-.237,0-.329.1-.283.28a.453.453,0,0,1,.177-.1A.163.163,0,0,0,201.444,176.556Z" transform="translate(0 3.39)" fill="#231f20"/><path d="M206.646,159.747a.618.618,0,0,0-.634.316c-.188.258-.375.5-.563.737a.526.526,0,0,1,.071-.21,11.676,11.676,0,0,0-1.056.882c-.329.3-.683.645-1.056,1.02h-.141v-.071a4.421,4.421,0,0,0-.318.351.261.261,0,0,1-.386.071,1.546,1.546,0,0,0-.528.492.741.741,0,0,1-.457.351c-.237.237-.422.411-.563.528s-.354.294-.634.528c0-.044-.046-.071-.141-.071a1.5,1.5,0,0,1-.914.424,10.6,10.6,0,0,0-1.374.879,1.985,1.985,0,0,1-1.23.457,8.273,8.273,0,0,0-.917.141,1.37,1.37,0,0,1-.631,0,4.212,4.212,0,0,0-1.409.316,2,2,0,0,1-1.407.106.86.86,0,0,0-.492-.492,5.947,5.947,0,0,0-.669-.351.9.9,0,0,1-.457-.634,2.793,2.793,0,0,1-1.126-1.442,6.8,6.8,0,0,1-.389-2.182,14.276,14.276,0,0,1,.177-2.571,23.628,23.628,0,0,1,.563-2.6,12.994,12.994,0,0,0-1.9,1.864q-.918,1.094-1.831,2.079a4.886,4.886,0,0,1-.773,1.056c-.283.28-.566.541-.846.775q-1.2,1.408-2.253,2.462a.15.15,0,0,1-.035.106.776.776,0,0,0-.106.174q-.563.424-1.265.988a9.093,9.093,0,0,1-1.445.95,4.1,4.1,0,0,1-1.548.457,2.4,2.4,0,0,1-1.654-.563.949.949,0,0,1-.669-.316,1.722,1.722,0,0,0-.528-.46,1.631,1.631,0,0,1-.95-.843,6,6,0,0,1-.248-1.477,3.648,3.648,0,0,1,.106-1.268,6.156,6.156,0,0,1,.457-1.339,9.484,9.484,0,0,1,1.058-2.5c.468-.775.914-1.488,1.336-2.147q1.2-1.62,2.43-2.993t2.568-2.71a5.584,5.584,0,0,0,.879-.56,3.8,3.8,0,0,1,1.02-.563.788.788,0,0,0,.775-.177c.283-.212.517-.152.7.177a7.306,7.306,0,0,1,2.6.7,3.02,3.02,0,0,1,1.548,1.831c.329-.234.634-.446.917-.634a3.331,3.331,0,0,1,.914-.422.686.686,0,0,0,.351-.283c.1-.142.188-.212.283-.212a1.626,1.626,0,0,1,1.3.283,8.757,8.757,0,0,0,1.159.7.16.16,0,0,1,.177-.035.531.531,0,0,0,.316-.035q.143.212.212.318a1.419,1.419,0,0,1,.141.316,6.783,6.783,0,0,1-.318,2.745,12.338,12.338,0,0,1-1.02,2.462q-.282,1.62-.775,3.521a6.136,6.136,0,0,0-.068,3.308,10.636,10.636,0,0,0,4.116-1.233q1.653-.951,3.344-1.866c.422-.326.811-.607,1.162-.843a5.231,5.231,0,0,0,1.02-.914.213.213,0,0,1,.141.071v.071a3.362,3.362,0,0,0,1.407-.882c.7-.585,1.42-1.2,2.147-1.828s1.409-1.186,2.041-1.657,1-.631,1.091-.49a.283.283,0,0,0,.354.033.377.377,0,0,1,.351-.033c.046.092.06.163.035.209a.115.115,0,0,0,.035.141V155.1c.046,0,.046.06,0,.177s-.1.234-.141.351a.648.648,0,0,1-.141.245c-.046.049-.046,0,0-.139-.093.1-.2.2-.316.316s-.223.223-.316.318a4.065,4.065,0,0,0-.177.492,5.1,5.1,0,0,1-.174.492.4.4,0,0,1-.283-.071.947.947,0,0,1-.386.492.973.973,0,0,0-.389.563c-.093,0-.188.117-.28.354Zm-19.216-6.054a4.2,4.2,0,0,0-.528-1.551q-.388-.633-1.374-.139l-1.126,1.265a.893.893,0,0,1-.351.318,1.276,1.276,0,0,0-.351.245,1.894,1.894,0,0,0-.283.386,5.547,5.547,0,0,1-.351.531l-.988,1.124a21.7,21.7,0,0,0-1.513,2.217q-.739,1.237-1.3,2.359a2.691,2.691,0,0,1-.354.634,2.482,2.482,0,0,0-.351.843c-.1-.046-.141-.033-.141.038s-.025.082-.071.033a3.386,3.386,0,0,1-.492,1.3,2.435,2.435,0,0,0-.351,1.371c.375-.234.773-.468,1.2-.7a4.716,4.716,0,0,0,1.056-.775q2.041-1.971,3.907-4.116t3.695-4.4a1.134,1.134,0,0,0,.351-.389.654.654,0,0,1,.354-.316v-.141A.976.976,0,0,0,187.43,153.693Z" transform="translate(28.655 19.286)" fill="#231f20"/><path d="M205.768,164.087a1.651,1.651,0,0,0-.985.492,2.748,2.748,0,0,1-.988.634q-.069.069,0,.212H203.3a.2.2,0,0,0-.139-.071c-.141,0-.188.033-.141.1s.024.152-.071.248a1.746,1.746,0,0,0-.808.386,1.49,1.49,0,0,1-1.02.248.278.278,0,0,1-.071.21.783.783,0,0,0-.634.422,1.476,1.476,0,0,0-1.056.5,3.445,3.445,0,0,0-1.866.773,3.616,3.616,0,0,1-2.005.775c-.19,0-.283.022-.283.071a16.31,16.31,0,0,1-2.851.174,9.979,9.979,0,0,1-2.919-.528,4.643,4.643,0,0,1-1.091-.422q-.531-.282-1.02-.563a2.525,2.525,0,0,1-1.3-1.2,6.9,6.9,0,0,1-.74-1.758,7.238,7.238,0,0,1-.174-2.465,10.159,10.159,0,0,1,.528-2.674,5.565,5.565,0,0,1,.634-1.548,14.62,14.62,0,0,0,.773-1.48,2.016,2.016,0,0,0,.775-1.124l.141-.071a25.614,25.614,0,0,1,1.97-2.5,14.057,14.057,0,0,1,2.394-2.076c0-.1.033-.141.1-.141s.106-.022.106-.068a3.047,3.047,0,0,1,.914-.531,5.227,5.227,0,0,0,1.056-.528,3.046,3.046,0,0,0,.634-.492.963.963,0,0,1,.846-.209,1.58,1.58,0,0,1,.667.316,1.568,1.568,0,0,0,.672.316.4.4,0,0,0,.386.071.866.866,0,0,1,.316-.071,3.649,3.649,0,0,1,.28.318.6.6,0,0,0,.5.177q.351.563.843,1.3a3.034,3.034,0,0,1,.492,1.725,2.119,2.119,0,0,0-.209,1.477,3.914,3.914,0,0,0-.563,1.232,5.6,5.6,0,0,1-.5,1.232c-.092.046-.163.06-.209.035a.262.262,0,0,0-.212.035c-.1,0-.152-.035-.174-.106s-.06-.106-.106-.106v.212a.765.765,0,0,1-.283-.354q-.351.143-1.02-.528a1.82,1.82,0,0,1-.667-1.159l.28-.775q.351-.775.74-1.513a3.127,3.127,0,0,0,.386-1.445,4.535,4.535,0,0,0-2.568,1.548,14.581,14.581,0,0,1-2.147,2.185c0,.092-.014.139-.035.139s-.035.046-.035.141a9.223,9.223,0,0,0-2.323,3.025q-.845,1.759-1.619,3.591c-.046.375-.1.786-.141,1.232a12.612,12.612,0,0,0-.071,1.3,8.36,8.36,0,0,0,.351,1.339,1.33,1.33,0,0,0,1.058.985,4.239,4.239,0,0,0,2.99.035,20.752,20.752,0,0,1,2.71-.881q2.179-.984,4.084-1.793a23.791,23.791,0,0,0,3.73-2.008h.21q.988-.7,1.937-1.336t1.934-1.407a3.975,3.975,0,0,0,1.551-1.058,3.912,3.912,0,0,1,1.619-1.056.652.652,0,0,1,.351-.492c.046-.092.057-.141.035-.141s-.011-.022.035-.068l.21.068v-.21a.438.438,0,0,0,.46-.318.854.854,0,0,1,.316-.457l.071.071a2.976,2.976,0,0,1,.351-.422,1.6,1.6,0,0,1,.634-.351c-.188.185-.174.316.035.386s.223.152.035.248q.139-.074.212.033a.312.312,0,0,0,.28.106l-.071.071h.141a.16.16,0,0,1,.035.177c-.024.071.035.106.177.106a.624.624,0,0,0-.106.457c.022.163.035.269.035.316a.063.063,0,0,1-.071.071.2.2,0,0,0-.141.071v.7c-.092.141-.152.2-.177.177s-.057.014-.1.106v.071c-.19-.046-.19-.071,0-.071-.237-.093-.283-.046-.141.141a.411.411,0,0,0-.492.177.979.979,0,0,1-.424.386.546.546,0,0,1,.212-.492c.141-.1.212-.188.212-.283a.736.736,0,0,0-.457.46.976.976,0,0,1-.46.525l.141-.139a.846.846,0,0,0-.6.174c-.117.12-.223.226-.316.318,0,.093.011.131.035.1s.035.014.035.106h-.071a.322.322,0,0,1-.209-.351,3.965,3.965,0,0,0-.318.6,1.25,1.25,0,0,1-.386.528.263.263,0,0,0-.212-.035.3.3,0,0,1-.141.035.278.278,0,0,1-.071.212.816.816,0,0,0-.139.209l-.071-.071v.212c-.049-.046-.223.06-.531.316s-.5.435-.6.528a.645.645,0,0,0-.035.354.209.209,0,0,1-.035.21c-.1-.044-.188-.011-.283.106a3.249,3.249,0,0,1-.28.316c-.1-.092-.082-.163.035-.21s.174-.117.174-.212c0-.044-.068-.071-.21-.071a2.727,2.727,0,0,0-.775.634,10.1,10.1,0,0,0-.631.917,1.007,1.007,0,0,0-.531.245c-.117.117-.223.223-.316.318-.046-.046-.046-.071,0-.071A.063.063,0,0,0,205.768,164.087Zm7.109-6.266a1.2,1.2,0,0,0,.351-.351.989.989,0,0,1-.209.177A.388.388,0,0,0,212.877,157.821Zm.422-1.758a.237.237,0,0,0,.248,0c.071-.046.082-.117.035-.212C213.391,155.946,213.3,156.017,213.3,156.063Zm.422.28h.071c.141-.141.117-.209-.071-.209Z" transform="translate(47.903 18.042)" fill="#231f20"/><path d="M222.339,173.652a.923.923,0,0,1-.316.46.655.655,0,0,0-.248.457c-.092,0-.141-.011-.141-.035s-.046-.035-.139-.035a.9.9,0,0,1-.424.492.921.921,0,0,0-.422.563l-.28.141c-.237.234-.329.351-.283.351a.522.522,0,0,0,.212-.071.619.619,0,0,1,.177-.071c.022,0-.106.12-.389.354-.234-.046-.375-.046-.422,0a.784.784,0,0,1-.28.141c-.1.234-.237.351-.422.351h-.071q.139,0,.139-.212c-.188.1-.411.212-.669.354a1.554,1.554,0,0,1-.737.21.64.64,0,0,1-.283.177c-.093.024-.139.106-.139.248-.049-.1-.155-.117-.318-.071s-.316.093-.457.139a.449.449,0,0,0-.212.248c-.046.117-.117.174-.21.174a1.156,1.156,0,0,0-.634.141.705.705,0,0,1-.386.142.435.435,0,0,0-.318.141.4.4,0,0,1-.28.139,3.7,3.7,0,0,1-1.268.492c-.471.1-.914.166-1.339.212-.234.1-.433.177-.6.248a1.744,1.744,0,0,1-.669.1,9.871,9.871,0,0,1-2.217-.1,11.742,11.742,0,0,1-2.079-.528,9.515,9.515,0,0,1-3.238-1.548,5.668,5.668,0,0,1-1.126-.988,3.3,3.3,0,0,1-.7-1.336,8.853,8.853,0,0,0-1.056,1.477c-.329.563-.683,1.126-1.056,1.69a1.278,1.278,0,0,0-.354.351.447.447,0,0,0-.139.318.7.7,0,0,1-.071.316c-.237.375-.457.729-.669,1.056a2.3,2.3,0,0,0-.318,1.268,4.264,4.264,0,0,1-1.545.846,2.649,2.649,0,0,1-1.2-.634,2.263,2.263,0,0,0-1.268-.563,2.642,2.642,0,0,1-.316-1.513,1.981,1.981,0,0,1,.457-1.374,10.1,10.1,0,0,1,.7-2.922,25.316,25.316,0,0,0,.988-2.919q.633-2.183,1.265-4.293t1.339-4.225l.351-.634a1.753,1.753,0,0,0,.177-.492.634.634,0,0,1,.174-.351,34.619,34.619,0,0,1,2.043-5.349q1.2-2.465,2.182-5.139l.139-.141q.706-1.759,1.3-3.379t1.3-3.238c.283-.609.55-1.162.808-1.654a5.349,5.349,0,0,0,.528-1.8.785.785,0,0,0,.492.106,3.808,3.808,0,0,1,.563-.035.062.062,0,0,0,.071.071h.141a1.41,1.41,0,0,0,.351-.035,1.26,1.26,0,0,1,.283-.035,1.113,1.113,0,0,1,.422.141c.188.1.326.12.422.071s.152-.035.177.035a.591.591,0,0,0,.248.245c.234.1.433.177.6.248a.775.775,0,0,1,.389.457,2.917,2.917,0,0,1,0,1.551,3.946,3.946,0,0,0-.914,1.159,6.551,6.551,0,0,1-.846,1.232.99.99,0,0,0-.071.422c0,.1-.035.12-.106.071s-.128-.022-.174.071q-.286.706-.669,1.477a5.648,5.648,0,0,0-.528,1.689c-.1,0-.141.014-.141.035s-.046.06-.141.106a1.466,1.466,0,0,1-.141.773,1.172,1.172,0,0,0-.139.634,1.469,1.469,0,0,0-.492.775,1.929,1.929,0,0,1-.5.846c-.326,1.031-.716,2.076-1.159,3.132s-.857,2.122-1.232,3.2a4.183,4.183,0,0,0-.7,1.232,7.33,7.33,0,0,1-.634,1.3q-.775,2.677-1.758,5.245a34.018,34.018,0,0,0-1.548,5.243,27.6,27.6,0,0,1,2.147-2.568c.773-.822,1.537-1.63,2.285-2.43.188-.234.375-.479.563-.74a3.522,3.522,0,0,1,.634-.667l1.2-.917q.845-.7,1.831-1.477a11.583,11.583,0,0,1,1.97-1.265.4.4,0,0,1,.283-.141.637.637,0,0,0,.28-.071,1.6,1.6,0,0,1,.843-.492,1.822,1.822,0,0,1,.952.28,3.835,3.835,0,0,0,.95.424,3.456,3.456,0,0,0,.457.879,1.043,1.043,0,0,1,.106,1.02.451.451,0,0,1-.248.212.929.929,0,0,0-.316.209.4.4,0,0,0-.071.283l-.7.7a3.66,3.66,0,0,1-.7.566c-.237.139-.5.3-.775.492q-1.547,1.265-3.1,2.462t-2.957,2.465c-.046,0-.093.071-.139.209a.9.9,0,0,0-.5.424.912.912,0,0,1-.422.419q0,.355.212.424a2.877,2.877,0,0,0-.071.563.752.752,0,0,0,.141.422,2.327,2.327,0,0,1,.351.457c.092.166.188.318.283.457a2.811,2.811,0,0,0,1.616,1.058,8.037,8.037,0,0,0,2.043.28,12.346,12.346,0,0,0,4.715-.811q1.971-.808,4.013-1.583c.093,0,.163-.057.209-.174s.117-.177.212-.177c0-.092.011-.117.035-.071a.11.11,0,0,0,.106.071,2.561,2.561,0,0,0,.245-.283.7.7,0,0,1,.248-.21,1.566,1.566,0,0,1,.492-.141q.139,0,.212-.212a.467.467,0,0,1-.248.106c-.117.025-.06-.079.177-.316.28-.1.422-.071.422.071s.141.139.422,0a1.6,1.6,0,0,1,.74-.846,3.638,3.638,0,0,0,.879-.492.386.386,0,0,1,.141.248c0,.071.1.106.28.106a.624.624,0,0,0,.177-.318c.025-.117.082-.174.177-.174.046.046.046.068,0,.068a.062.062,0,0,0-.071.071c.093.1.163.106.212.035s.068-.082.068-.035v.492a.68.68,0,0,0,.212.5C222.176,173.3,222.152,173.467,222.339,173.652Z" transform="translate(61.809 5.941)" fill="#231f20"/><path d="M247.057,168.332c.1.1.2.071.318-.071a.5.5,0,0,1,.386-.21,55.948,55.948,0,0,1-7.038,5.452q-3.8,2.5-7.531,4.682c-.046,0-.046-.025,0-.071s.046-.071,0-.071a19.272,19.272,0,0,1-3.45,1.339.117.117,0,0,1-.071.106c-.046.022-.025.033.071.033a14.649,14.649,0,0,1-2.5,1.3q-1.306.531-2.781,1.091a1.986,1.986,0,0,1-.95.212,5.865,5.865,0,0,0-1.02.141,20.968,20.968,0,0,0-1.129,2.851,15.7,15.7,0,0,1-1.126,2.71,5.839,5.839,0,0,0-.563,1.159,2.427,2.427,0,0,1-.563.95,1.019,1.019,0,0,1-.139.566,2.712,2.712,0,0,0-.283.631c-.046,0-.071-.022-.071-.068V191l-.071.071h.071c-.046,0-.071.022-.071.068v-.068a1.459,1.459,0,0,0-.316.843,3.814,3.814,0,0,1-.245,1.056h.21q-.282.914-.492,1.937a2.976,2.976,0,0,1-.914,1.654c0,.092.046.114.141.071s.117-.024.068.068a4.415,4.415,0,0,0-.7,1.9,4.487,4.487,0,0,1-.775,1.97,1.073,1.073,0,0,0-.563-.21c-.283-.049-.446-.12-.492-.212a7.862,7.862,0,0,1-.914.071,6.468,6.468,0,0,1-.669-.035.769.769,0,0,1-.386-.106l-.071-.141a1.838,1.838,0,0,0-.141-.7,5.4,5.4,0,0,1-.212-.634,8.5,8.5,0,0,1,.354-1.69q.282-.918.563-1.831a43.3,43.3,0,0,1,1.442-4.609q.882-2.359,1.583-4.329.351-.775.811-1.76a2.77,2.77,0,0,0,.386-1.339.629.629,0,0,0-.106-.316c-.071-.117-.128-.131-.174-.035-.1,0-.106-.06-.038-.177s.06-.2-.033-.245a.526.526,0,0,1-.563.21.524.524,0,0,0-.563.212,1.974,1.974,0,0,1-1.339-.422,1.9,1.9,0,0,0-1.477-.354v-.28a1.474,1.474,0,0,1-.811-.248,1.431,1.431,0,0,1-.528-.528.513.513,0,0,1-.634-.212,2.381,2.381,0,0,0-.634-.563.232.232,0,0,1,0-.245.355.355,0,0,0,0-.318c-.093-.044-.128.014-.1.177s-.011.223-.106.177a.572.572,0,0,1,.071-.354.607.607,0,0,1-.424-.209,1.621,1.621,0,0,0-.563-.351c.1-.237.049-.389-.139-.46a.522.522,0,0,1-.351-.316c.092,0,.142.014.142.035s.046.035.139.035a.832.832,0,0,1,.177-.6,1.088,1.088,0,0,0,.245-.6c.517-.514.974-.939,1.374-1.268a5.516,5.516,0,0,1,1.513-.843.2.2,0,0,1,.106.248,2.157,2.157,0,0,1-.106.351,1.951,1.951,0,0,0-.106.386.379.379,0,0,0,.106.351,1.255,1.255,0,0,0-.351,1.02q0,.743.563.531a.231.231,0,0,1,.071.28.569.569,0,0,0-.071.212,5.052,5.052,0,0,0,2.462.808,19.218,19.218,0,0,0,2.606.035v.212a1.929,1.929,0,0,0,.525-.071,1.02,1.02,0,0,1,.528,0,4.725,4.725,0,0,0,.846-1.831,8.056,8.056,0,0,1,.7-1.9q.559-1.477,1.056-2.922c.327-.96.7-1.91,1.126-2.849.142-.329.3-.672.492-1.023a9.608,9.608,0,0,0,.492-1.091,11.618,11.618,0,0,0,.457-1.2,3.824,3.824,0,0,1,.457-.985,5.224,5.224,0,0,0,.422-1.162,6.678,6.678,0,0,1,.424-1.23q.914-1.971,1.864-4.4t1.9-5q.951-2.567,1.828-5.1t1.725-4.715a9.112,9.112,0,0,1-2.041,1.056,10.877,10.877,0,0,0-2.111,1.056.24.24,0,0,0-.071.174.242.242,0,0,1-.071.177.116.116,0,0,1-.142.035.119.119,0,0,0-.141.035,2.849,2.849,0,0,1-.7.6,9.068,9.068,0,0,1-1.973.879,1.069,1.069,0,0,0-.525.422c-.12.19-.212.354-.283.5s-.142.223-.212.245-.174-.057-.316-.245a.534.534,0,0,0-.283-.318.578.578,0,0,1-.28-.245v-.283c-.1-.234-.2-.316-.316-.245s-.226.011-.318-.177a2.21,2.21,0,0,1,.492-1.3c.234-.209.563-.528.985-.95.1-.046.141-.106.141-.177a.381.381,0,0,1,.141-.245,4.7,4.7,0,0,1,1.3-.917,4.893,4.893,0,0,0,1.374-.985.58.58,0,0,0,.386-.141.715.715,0,0,1,.457-.139,19.257,19.257,0,0,1,2.008-1.091,11.979,11.979,0,0,1,2.215-.879,19.08,19.08,0,0,1,2.677-.952c.939-.256,1.875-.528,2.816-.808a6.412,6.412,0,0,0,1.2-.141c.468-.092.96-.177,1.477-.248s1.009-.128,1.477-.174a5.8,5.8,0,0,1,1.268,0,9.2,9.2,0,0,0,1.336.035,7.225,7.225,0,0,1,1.48.1q.139,0,.457-.033a1.741,1.741,0,0,1,.6.033q2.249.494,4.223,1.023a9.807,9.807,0,0,1,3.308,1.513,11.992,11.992,0,0,1,2.99,3.73,12.933,12.933,0,0,1,1.232,4.856c.188.049.248.152.177.316a1.017,1.017,0,0,0-.035.6c.046.139.092.269.141.386a.879.879,0,0,1,.071.316c-.1.237-.19.471-.283.7a1.109,1.109,0,0,0,0,.773.116.116,0,0,0,.141.038c.046-.024.046-.084,0-.177a.326.326,0,0,1,.035.386c-.071.166-.152.245-.248.245-.139.612-.269,1.151-.386,1.622a14.082,14.082,0,0,1-.528,1.616,16.364,16.364,0,0,0-1.091,1.551,5.7,5.7,0,0,0-.74,1.831l-3.518,4.152c-.1,0-.141-.025-.141-.071s-.046-.1-.142-.141a3.552,3.552,0,0,1-.6.7,6.843,6.843,0,0,0-.669.7c-.093.046-.128.046-.1,0s-.014-.071-.106-.071a6.327,6.327,0,0,1-.881.74,2.269,2.269,0,0,0-.737.879.8.8,0,0,0-.669.316,2.683,2.683,0,0,0-.386.669c-.1-.093-.223-.046-.386.141A1.752,1.752,0,0,1,247.057,168.332Zm-29.49,13.726a.9.9,0,0,1-.424-.177c-.188-.114-.258.014-.209.389a.874.874,0,0,0,.386.071C217.483,182.341,217.568,182.246,217.568,182.058Zm.631,10.771.071-.071Zm.422-1.339a.418.418,0,0,1-.071-.283A.413.413,0,0,1,218.62,191.491Zm6.9-10.63c0,.049.071.071.21.071q2.041-.984,4.155-1.9t4.152-2.043a1.344,1.344,0,0,0,.071-.422c.563-.329,1.091-.656,1.583-.985a11.107,11.107,0,0,1,1.513-.846,9.3,9.3,0,0,1,2.816-1.758,5.907,5.907,0,0,0,2.6-1.973,1.5,1.5,0,0,0-.7.492,1.494,1.494,0,0,1-.843.492,3.821,3.821,0,0,1-1.586,1.091c-.726.307-1.279.552-1.654.74a4.062,4.062,0,0,1,1.374-.843,3.528,3.528,0,0,0,1.371-.917.451.451,0,0,0,.5-.209c.139-.188.256-.354.351-.5a5.319,5.319,0,0,1,.95-.773,1.336,1.336,0,0,0,.6-.7,10.153,10.153,0,0,0-2.147,1.126q-1.163.775-1.937,1.339l-.068.071-.071-.071a3.847,3.847,0,0,1-.7.563,6.248,6.248,0,0,0-.7.492,17.532,17.532,0,0,0-1.828,1.2,17.4,17.4,0,0,1-1.831,1.194.426.426,0,0,0-.245.071.426.426,0,0,1-.248.071l-.212.351q-1.547.918-3.1,1.866t-3.167,1.866c-.1-.046-.141-.046-.141,0s-.049.046-.141,0a3.385,3.385,0,0,1-.985.563c-.375.139-.729.258-1.056.351v.141a5.011,5.011,0,0,1,.563-.106,1.731,1.731,0,0,0,.563-.177Zm-.634-3.589q.494-.212,1.268-.457t1.583-.492c.539-.166,1.056-.329,1.548-.5a4.948,4.948,0,0,0,1.162-.528,5.764,5.764,0,0,1,1.339-.773.642.642,0,0,0,.174-.283.625.625,0,0,1,.174-.28.713.713,0,0,1,.389-.141,1.255,1.255,0,0,0,.386-.071,2.562,2.562,0,0,0,.531-.351c.163-.141.34-.283.525-.422a1.336,1.336,0,0,1,.988-.354,2.283,2.283,0,0,1,.773-.7c.326-.185.658-.362.985-.525a8.415,8.415,0,0,0,.952-.563,1.794,1.794,0,0,0,.667-.882q2.253-1.62,4.753-3.521a44.341,44.341,0,0,0,4.538-3.94q1.69-1.69,3.521-3.591a14.211,14.211,0,0,0,2.887-4.435.634.634,0,0,1-.035-.386,1.184,1.184,0,0,1,.106-.386,12.7,12.7,0,0,0,.528-1.8,14.092,14.092,0,0,0,.316-2.005,3.117,3.117,0,0,0-.071-.669,1.63,1.63,0,0,1,0-.669,9.473,9.473,0,0,1-.177-1.3,5.585,5.585,0,0,0-.245-1.3,6.23,6.23,0,0,0-.95-1.831q-.6-.771-1.3-1.548a5.659,5.659,0,0,0-1.409-.669,8.049,8.049,0,0,1-1.053-.386q-2.677-.49-4.505-.634a15.242,15.242,0,0,0-3.132.035,13.806,13.806,0,0,0-2.394.528c-.729.237-1.491.517-2.288.846a2.278,2.278,0,0,1-.773.245c-.378.071-.754.152-1.126.248a5.931,5.931,0,0,0-1.023.351c-.3.141-.482.307-.528.492a7.83,7.83,0,0,1,1.445,1.126q.457.494,1.091,1.2a.693.693,0,0,0,.106.422.384.384,0,0,1,.035.354q-.706,2.322-1.056,3.376a11.4,11.4,0,0,1-.917,2.041,3.557,3.557,0,0,0-.667,1.551,9.008,9.008,0,0,1-.53,1.76,37.016,37.016,0,0,1-1.97,4.364,14.192,14.192,0,0,0-1.2,2.851,17.164,17.164,0,0,1-1.126,2.849c-.375.658-.737,1.339-1.091,2.041s-.667,1.409-.95,2.114l-.422,1.124a17.793,17.793,0,0,0-1.094,3.485,21.2,21.2,0,0,1-1.02,3.485v.071C224.7,177.836,224.791,177.648,224.886,177.272Zm1.76,1.268a.924.924,0,0,1-.669.28.531.531,0,0,0-.528.422,6.68,6.68,0,0,1,.737-.245A.581.581,0,0,0,226.647,178.54Zm1.477-.7a.418.418,0,0,0-.386.071,1.751,1.751,0,0,0-.386.28,2.778,2.778,0,0,0,.386-.035A.513.513,0,0,0,228.124,177.836Zm.985-.634a1.665,1.665,0,0,1-.457.212.629.629,0,0,0-.386.422.89.89,0,0,0,.6-.212A.58.58,0,0,0,229.109,177.2Zm8.165-2.111a.445.445,0,0,0-.28.351c.092-.046.163-.082.209-.106S237.274,175.229,237.274,175.09Zm5.773-3.45q.914-.775,1.831-1.583a15.334,15.334,0,0,0,1.616-1.654.313.313,0,0,1,.212-.177c.1-.022.117-.082.071-.174q-.988.914-2.147,1.828a25.3,25.3,0,0,0-2.217,1.973c-.8.468-1.665.963-2.6,1.477a10.551,10.551,0,0,0-2.394,1.76,26.438,26.438,0,0,0,2.887-1.69Q241.779,172.417,243.047,171.641Z" transform="translate(88.543 0)" fill="#231f20"/><path d="M256.291,156.041c.1-.1.163-.106.212-.035s.092-.011.141-.248c.093-.044.142-.092.142-.139s.046-.071.139-.071a.915.915,0,0,1-.316.808.677.677,0,0,0-.248.74,2.825,2.825,0,0,0-.245.28,2.364,2.364,0,0,0-.248.492c-.1.1-.071.12.071.071s.212-.046.212,0c-.329.237-.484.424-.457.563s-.152.329-.531.563a.09.09,0,0,0,0,.141v.071h-.071a.736.736,0,0,1-.525.141c-.261,0-.435.163-.528.492a.237.237,0,0,0-.248,0,2.446,2.446,0,0,1-.245.141,1.852,1.852,0,0,1-.846,1.194v-.071l-.28.283c-.049.046-.084.071-.109.071s-.057.035-.1.106a3.41,3.41,0,0,0-.212.386l-.071-.212a.916.916,0,0,0-.209.422q-.073.286-.212.212c-.046.049-.025.141.071.283a1.725,1.725,0,0,1-.457.422q-.388.282-.457.351c0,.188-.035.283-.106.283s-.131.046-.177.141c-.1.046-.128.057-.106.033s-.011-.033-.106-.033a2.885,2.885,0,0,1-.28.422.207.207,0,0,1-.141.071,1.06,1.06,0,0,1-.21-.035c-.1-.024-.212.035-.351.174a.623.623,0,0,1-.177.071c-.025,0-.084.046-.177.141a.93.93,0,0,1-.316.457,1.352,1.352,0,0,0-.389.457q0-.139-.139,0-.355.212-.881.563c-.351.237-.74.471-1.162.7a14.326,14.326,0,0,1-1.3.634,4.81,4.81,0,0,1-1.162.351,6.681,6.681,0,0,1-1.513.106,3.972,3.972,0,0,1-1.657-.528.435.435,0,0,0-.21-.106.166.166,0,0,1-.141-.177l-.139-.28-.141-.071a2.016,2.016,0,0,1-.811-.914,7.071,7.071,0,0,1-.386-1.126c-.1-.234-.166-.329-.212-.283.1-.234.1-.4,0-.492a5.424,5.424,0,0,1-.035-1.162q.037-.808.141-1.69c.071-.585.128-1.135.177-1.651s.093-.917.141-1.2a.225.225,0,0,0-.212.139.6.6,0,0,0-.071.283c-.234.28-.422.528-.563.737s-.3.484-.492.811a.959.959,0,0,0-.528.563,1.755,1.755,0,0,1-.74.773,1.585,1.585,0,0,1-.386.5,5.072,5.072,0,0,1-.457.351,2.832,2.832,0,0,1-1.2,1.268,14.263,14.263,0,0,1-2.217,2.041q-1.232.914-2.359,1.689a2.838,2.838,0,0,1-1.69.422,8.275,8.275,0,0,1-1.758-.351,1.514,1.514,0,0,0-.811-.248,1.628,1.628,0,0,1-.737-.174,1.3,1.3,0,0,1-.528-.775,3.286,3.286,0,0,0-.318-.775,12.011,12.011,0,0,1,.351-3.238,35.8,35.8,0,0,1,1.058-3.659q.633-1.828,1.336-3.556t1.126-2.99l.7-2.041a.853.853,0,0,0,.035-.389.151.151,0,0,1,.035-.174c.327-.046.737-.1,1.23-.141a1.517,1.517,0,0,1,1.162.283.716.716,0,0,1,.811.245c.21.258.362.457.457.6,0,.329.046.492.139.492a1.1,1.1,0,0,0-.174.843,1.031,1.031,0,0,1-.035.7l-.422.846c0-.046-.1.022-.283.209q-.069.212-.245.775c-.12.375-.248.762-.386,1.162s-.272.773-.389,1.126a3.464,3.464,0,0,1-.316.737,13.863,13.863,0,0,0-.952,1.831c-.256.609-.482,1.1-.667,1.477-.237.8-.424,1.562-.563,2.288s-.258,1.513-.354,2.359a50.054,50.054,0,0,0,6.511-5.632,63.532,63.532,0,0,0,6.511-7.814,1.627,1.627,0,0,1,.318-.528.825.825,0,0,0,.174-.6c.329-.1.517-.188.566-.283.656,0,1.1.011,1.336.035a2.529,2.529,0,0,1,.988.457c.046.471.068,1,.068,1.583a11.284,11.284,0,0,1-.139,1.76,10.151,10.151,0,0,1-.389,1.619,3.594,3.594,0,0,1-.528,1.091q-.212.775-.492,1.9c-.188.748-.365,1.524-.528,2.321a13.486,13.486,0,0,0-.28,2.288,3.315,3.315,0,0,0,.316,1.725,5.942,5.942,0,0,0,2.851-1.268,18.208,18.208,0,0,1,2.639-1.69l.071-.21a1.08,1.08,0,0,1,.386-.141h.141a.1.1,0,0,0,.071-.035c.022-.024.106-.128.245-.318a16.229,16.229,0,0,0,3.591-2.6c.28-.234.373-.34.28-.316s.025.011.354-.035a3.913,3.913,0,0,1,.7-.775c.234-.185.482-.373.74-.563s.552-.411.879-.667a6.8,6.8,0,0,0,1.056-1.091h.775A.6.6,0,0,0,256.291,156.041Z" transform="translate(114.222 18.979)" fill="#231f20"/><path d="M256.395,175.156a.323.323,0,0,1-.212.351v-.21l-.142.141c0,.046.046.068.142.068a.88.88,0,0,1-.071.318.7.7,0,0,1-.422.316.687.687,0,0,1-.7.634l.068-.139v-.141c-.28,0-.375.093-.28.28a.141.141,0,0,0-.212.071c-.046.1-.139.1-.28,0-.1.1-.082.152.033.177s.131.035.038.035q-.074.069-.106,0a.117.117,0,0,0-.106-.071c-.28.234-.588.468-.914.7a2.654,2.654,0,0,0-.775.843.278.278,0,0,0,.071.209.982.982,0,0,1,.141.212.386.386,0,0,1-.283.035.211.211,0,0,0-.212.035c0,.049-.093.024-.28-.071-.142.234-.283.46-.422.669a.424.424,0,0,1-.563.177,1.651,1.651,0,0,1-.318.245,2.126,2.126,0,0,0-.386.318c-.046.046-.071.046-.071,0a4.248,4.248,0,0,1-.808.351c-.4.141-.811.291-1.233.457l-1.162.457a2.234,2.234,0,0,0-.667.354,3.558,3.558,0,0,0-.952.141,2.342,2.342,0,0,0-.879.422c-.563.093-1.211.22-1.937.386a4.8,4.8,0,0,1-2.356-.106c-.237-.046-.354-.06-.354-.035s.025.06.071.106a.2.2,0,0,1,.071.141c0,.046-.1.068-.283.068,0-.185-.046-.291-.139-.316a1.137,1.137,0,0,0-.283-.035,1.632,1.632,0,0,0-.316-.245,1.688,1.688,0,0,0-.528-.177,10.7,10.7,0,0,1-2.182-2.919,10.37,10.37,0,0,1-1.056-3.7,1.6,1.6,0,0,1,.071-.457.546.546,0,0,0,0-.386v-3.1a.329.329,0,0,1,.1-.245.2.2,0,0,0,.035-.248l.212-1.619a1.022,1.022,0,0,0-.035-.316.755.755,0,0,1-.035-.248l.071-.071a.123.123,0,0,0,.142-.139c.092-.1.117-.166.071-.212a.276.276,0,0,1-.071-.209l.422-1.268a2.106,2.106,0,0,0,.106-.248c.022-.071-.014-.177-.106-.316.046-.092.141-.092.283,0,.043-.234.092-.471.139-.7a.957.957,0,0,0-.071-.634h.071a.4.4,0,0,0,.141-.28.124.124,0,0,1,.141-.141,4.037,4.037,0,0,1,.56-1.866,3.916,3.916,0,0,0,.563-1.793c.329-.141.446-.354.354-.634.092,0,.141-.082.141-.248s.046-.269.139-.316v-.212a3.509,3.509,0,0,0,.775-1.9,10.974,10.974,0,0,0,1.619-3.1c.188-.049.294-.131.316-.248a3.522,3.522,0,0,1,.106-.386,12.225,12.225,0,0,0,.7-1.339,3.961,3.961,0,0,1,.985-1.339,5.444,5.444,0,0,1,.563-.985c.234-.326.468-.68.7-1.056q1.2-1.689,2.392-3.414a11.655,11.655,0,0,1,3.24-3.061,1.966,1.966,0,0,1,.773-.492c.28-.093.609-.212.985-.354a2.8,2.8,0,0,1,3.308.212,2,2,0,0,0,.846.389.947.947,0,0,1,.7.6c.188.049.269.106.248.177a.532.532,0,0,0,.035.316,1.07,1.07,0,0,0,.21.283.25.25,0,0,1,0,.351.256.256,0,0,0,.038.283c.071.092.033.234-.106.422a1.854,1.854,0,0,1-.563.843l-.142,1.056-.492.563c-.142.378-.28.74-.422,1.091a3.55,3.55,0,0,1-.563.952A7.463,7.463,0,0,1,253.3,152.7a24.224,24.224,0,0,0-2.041,2.816,7.09,7.09,0,0,0-1.162,1.76A10.014,10.014,0,0,1,249,159.109a4.621,4.621,0,0,0-.457.351.7.7,0,0,0-.245.563,6.461,6.461,0,0,0-1.445,1.69,10.382,10.382,0,0,1-1.371,1.831,1.009,1.009,0,0,1-.492.667,1,1,0,0,0-.492.669.641.641,0,0,1-.283.177c-.1.022-.117.131-.071.316a1.173,1.173,0,0,0-.667.7,1.607,1.607,0,0,1-.6.773,1,1,0,0,1-.316.424,2.216,2.216,0,0,1-.386.28,11.365,11.365,0,0,0-1.091,1.3,6.847,6.847,0,0,1-1.8,1.583c-.1.139-.188.209-.28.209v.492a18.8,18.8,0,0,0-.457,3.344,12.986,12.986,0,0,0,.316,3.695c.188.7.326,1.08.422,1.126a.177.177,0,0,0,.245-.068c.071-.1.117-.117.141-.071a9.155,9.155,0,0,1,.177.985c0,.049.022.071.071.071h.141a.286.286,0,0,0,.209.071,9.717,9.717,0,0,0,1.866.174,3.9,3.9,0,0,0,1.3-.386c.751-.28,1.466-.552,2.147-.808a11.229,11.229,0,0,0,1.937-.952c0,.049.046.071.141.071h.071v.071c.092,0,.117-.046.068-.141.1,0,.141-.011.141-.035s.024-.035.071-.035h.141l.21-.209a8.656,8.656,0,0,0,2.217-1.515,8.786,8.786,0,0,1,2.217-1.513c0-.139.046-.22.141-.245s.142-.106.142-.248c.046,0,.057.025.035.071s.011.025.106-.071q.7-.351,1.23-.6a.724.724,0,0,0,.46-.808c.092,0,.139.025.139.071a.063.063,0,0,0,.071.071,5.177,5.177,0,0,1,.424-.492,1.015,1.015,0,0,1,.28-.212c.092-.046.2-.106.316-.177a3.188,3.188,0,0,0,.528-.457c-.142-.141-.163-.22-.071-.248a.3.3,0,0,0,.212-.174c.1.1.106.152.035.174s-.082.084-.035.177c.375-.422.74-.819,1.091-1.2s.55-.468.6-.28c.283-.234.411-.362.386-.386a.2.2,0,0,0-.142-.035.193.193,0,0,1-.139-.035c-.025-.024.106-.131.386-.318a.593.593,0,0,1,.563.141c-.046.329.071.517.354.563-.19.1-.248.188-.177.28a2.179,2.179,0,0,1,.177.283,1.026,1.026,0,0,1-.071.422,3.806,3.806,0,0,1-.177.95.72.72,0,0,1-.212.318,1.011,1.011,0,0,1-.21.106c-.071.022-.106.106-.106.245a.278.278,0,0,0,.071.212v.071c-.049.046-.082.024-.106-.071a.318.318,0,0,0-.177-.212,1.12,1.12,0,0,1-.035.283.172.172,0,0,0,.106.212,3.39,3.39,0,0,1-.422.28.651.651,0,0,1-.177.071c-.024,0-.057.025-.106.068a1.7,1.7,0,0,0-.209.354v-.141c-.191-.046-.283.014-.283.177a.44.44,0,0,1-.21.386c-.1-.092-.106-.163-.035-.212s.082-.114.035-.21c-.1-.046-.177-.011-.248.106s-.152.1-.248-.035a2.238,2.238,0,0,0-.139.492.725.725,0,0,1-.283.492c-.092,0-.1-.06-.033-.174a.658.658,0,0,0,.1-.318,1.19,1.19,0,0,0-.492.492C256.253,175.18,256.3,175.156,256.395,175.156Zm-19.921-6.968a.581.581,0,0,0-.068-.351.561.561,0,0,1-.038.174C236.346,168.082,236.379,168.142,236.474,168.188Zm4.013-3.238q1.477-1.832,2.674-3.556t2.536-3.553c0-.046.022-.071.068-.071a2.368,2.368,0,0,0,.669-.985,3.779,3.779,0,0,1,.528-.988q1.126-1.473,2.217-2.99a20.513,20.513,0,0,0,1.864-3.132q.494-.914.917-1.8a8.432,8.432,0,0,0,.634-1.866,1.354,1.354,0,0,0,.563-1.548,2.073,2.073,0,0,0-1.2.811,4.562,4.562,0,0,1-.985,1.02,5.234,5.234,0,0,1-.7,1.162c-.28.351-.563.691-.843,1.02A11.128,11.128,0,0,0,246.609,152q-.984,1.975-1.97,4.013a1.093,1.093,0,0,1-.351.071,2.17,2.17,0,0,1-.492.95,1.268,1.268,0,0,0-.354.882,5.158,5.158,0,0,0-.631,1.056,7.686,7.686,0,0,1-.566,1.056,5.592,5.592,0,0,1-.316.669c-.117.21-.223.411-.316.6v.354a6.381,6.381,0,0,1-.351.6,1.113,1.113,0,0,0-.141.808,2.1,2.1,0,0,0-.46.917c-.068.327-.152.658-.245.985ZM250.9,178.394a.062.062,0,0,1-.071.071.186.186,0,0,0,.21-.212.5.5,0,0,0,.563-.245,3.444,3.444,0,0,1,.424-.528c0,.046.046.1.139.141l.318-.318c.117-.117.152-.22.106-.316a6.192,6.192,0,0,0-.775.386,2.6,2.6,0,0,0-.775.74h-.21v.139a.062.062,0,0,0,.071.071.234.234,0,0,0-.28.071.173.173,0,0,0,0,.283c.044,0,.079-.035.1-.106A.319.319,0,0,1,250.9,178.394Zm.071-.071-.071.071v-.071Zm2.041-1.619c-.234,0-.351.1-.351.283.093,0,.15-.025.177-.071A.929.929,0,0,1,253.016,176.7Zm.775-.209a.146.146,0,0,0-.106.033.134.134,0,0,1-.106.038l.142.139a.124.124,0,0,1-.142-.139.616.616,0,0,0-.316.21q-.106.143.033.212c0-.188.024-.283.071-.283v.283c.141,0,.223-.025.248-.071a.967.967,0,0,1,.177-.212Zm.351-.283c.046.049.035.131-.035.248s-.06.177.035.177a.569.569,0,0,0,.071-.212A.3.3,0,0,0,254.142,176.212Zm1.619-.914c-.188.1-.329.163-.422.21a1.2,1.2,0,0,0-.283.212c-.046,0-.06-.011-.035-.035s-.011-.035-.1-.035a1.654,1.654,0,0,1-.248.212c-.071.046-.082.163-.035.351a1.955,1.955,0,0,0,.669-.351A2.338,2.338,0,0,0,255.761,175.3Zm.985-3.45c-.046-.139-.071-.117-.071.071Zm.7,1.619a.744.744,0,0,0-.492.177c-.141.117-.188.223-.141.316a1.6,1.6,0,0,0,.248-.141A3.014,3.014,0,0,0,257.451,173.466Zm1.339-1.194a.685.685,0,0,0-.354.631.413.413,0,0,0,.422-.106C259,172.68,258.974,172.506,258.789,172.272Zm.492,1.194c0,.049-.014.071-.035.071s-.035-.022-.035-.071Z" transform="translate(134.038 5.705)" fill="#231f20"/><path d="M277.974,156.613a.155.155,0,0,1-.035.106.136.136,0,0,0-.035.1v-.068l-.141.139v.071l.141.071a1.369,1.369,0,0,0-.106.28,1.247,1.247,0,0,0,.035.5c0,.046-.025.068-.071.068h-.142a.063.063,0,0,1,.071.071.413.413,0,0,0,.071.283,1.157,1.157,0,0,0-.422.528,1.308,1.308,0,0,1-.354.528c-.046,0-.046-.022,0-.071a.086.086,0,0,0,0-.141.887.887,0,0,0-.316.5,3.766,3.766,0,0,1-.248.631c-.092.237-.245.318-.457.248s-.316.011-.316.248a3.252,3.252,0,0,0-.6.492,1.654,1.654,0,0,0-.141.209,1.048,1.048,0,0,1-.28.248c-.166.117-.528.34-1.091.667a4.79,4.79,0,0,1-.917.177,1.535,1.535,0,0,0-.843.386.062.062,0,0,1-.071.071h-.071a2.359,2.359,0,0,1-.28.354l-.212.209a.213.213,0,0,0-.071.141,1.223,1.223,0,0,0-.7.106,1.257,1.257,0,0,0-.634.386c-.1-.092-.212-.082-.351.035a.647.647,0,0,0-.212.528c-.049-.188-.082-.258-.106-.21s-.082.068-.177.068a1.05,1.05,0,0,1-.634.563l.212-.28a1.526,1.526,0,0,0-.492.212,3.372,3.372,0,0,1-.563.28c0,.046.1.024.28-.071a.508.508,0,0,1-.631.212c-.141,0-.258.1-.354.28,0-.046-.011-.071-.035-.071s-.035-.022-.035-.068c-.046.093-.234.2-.563.316a10.983,10.983,0,0,1-1.053.316c-.378.1-.729.177-1.058.248a5.061,5.061,0,0,1-.563.1,6.781,6.781,0,0,1-3.132.5c-1.292-.049-2.405-.117-3.344-.212-.468-.046-.854-.071-1.162-.071a2,2,0,0,0-1.02.351h-.634a4.062,4.062,0,0,1-2.041.071c-.046.049-.071.049-.071,0v-.071a.824.824,0,0,0-.177.109.288.288,0,0,1-.174.033c.092-.327.011-.468-.248-.422s-.386-.022-.386-.212c-.141,0-.212.12-.212.354-.046,0-.117-.082-.21-.248s-.166-.2-.212-.106c-.092-.044-.071-.139.071-.28-.1-.046-.141-.106-.141-.177a.387.387,0,0,0-.139-.245.315.315,0,0,1,.068-.351H250.1l-.141.28a.391.391,0,0,0,.071.28.3.3,0,0,1,.071.212c0,.1-.049.106-.141.035a1.706,1.706,0,0,1-.212-.177,4.421,4.421,0,0,0-.879,1.69,8.366,8.366,0,0,1-.882,1.973l-1.053,3.376c-.1.375-.283,1.08-.563,2.111s-.588,2.114-.917,3.24-.634,2.193-.914,3.2a19.756,19.756,0,0,1-.634,2.005c-.092.326-.188.645-.283.95s-.185.645-.28,1.02a3.142,3.142,0,0,1-.071.672,4.663,4.663,0,0,1-.141.525,2.32,2.32,0,0,1,.071,1.268c-.092.093-.163.117-.209.071a.278.278,0,0,0-.212-.071.549.549,0,0,0-.492.212.27.27,0,0,0-.318-.071.867.867,0,0,1-.316.071l-.071-.141c-.046,0-.071.011-.071.035s-.022.035-.068.035l-.071.071a1.946,1.946,0,0,1-.634-.422,1.209,1.209,0,0,0-.634-.354.758.758,0,0,0-.528-.106,1.674,1.674,0,0,1-.6-.035.674.674,0,0,1-.177-.386.37.37,0,0,1,.177-.386q.069-.494.106-.775a.387.387,0,0,1,.316-.351c.141-.378.272-.74.389-1.091a3.678,3.678,0,0,0,.174-1.162q.212-1.126.74-3.17t1.162-4.255q.633-2.22,1.2-4.225t.843-3.132a11.144,11.144,0,0,0,.914-2.359q.355-1.3.846-2.71a.28.28,0,0,1,.1-.174l.248-.248.917-2.957q.42-1.122.914-2.217a19.887,19.887,0,0,0,.843-2.215l.775-2.324q.42-1.2.808-2.394a9.079,9.079,0,0,1,1.094-2.253,5.316,5.316,0,0,1,1.053-.035,3.156,3.156,0,0,1,1.056.248,1.507,1.507,0,0,1,.74.634,1.6,1.6,0,0,1,.106,1.126,2.314,2.314,0,0,1-.492,1.23,2.8,2.8,0,0,0-.563,1.162,2.3,2.3,0,0,0-.212.914q-.143.567-.386,1.374c-.166.541-.318,1.067-.457,1.583a3.885,3.885,0,0,0,.563-.351.836.836,0,0,1,.422-.212c0-.092-.024-.139-.071-.139.375-.329.762-.68,1.162-1.058s.786-.748,1.162-1.126h.212a.289.289,0,0,0-.212.071c-.049.049-.025.12.071.212a.551.551,0,0,1,.142-.106c.046-.024.046-.082,0-.177v-.071a1.106,1.106,0,0,1,.071-.351c.092.234.22.248.386.035s.291-.316.386-.316c-.046-.188.093-.354.422-.5a.282.282,0,0,0,.318-.068c.117-.1.15-.258.1-.5a.811.811,0,0,1,.071.354c.046-.092.1-.188.141-.283a1.1,1.1,0,0,1,.212-.28c-.1,0-.117-.024-.071-.071a2.7,2.7,0,0,0,.634-.351c.185-.141.4-.3.631-.492v.071a.782.782,0,0,1,.389-.389c.209-.114.433-.234.669-.351s.468-.248.7-.386a1.6,1.6,0,0,0,.5-.424.955.955,0,0,0,.914-.28h.139a5.742,5.742,0,0,1,1.76-.6,4,4,0,0,1,1.9.106c0,.046.046.117.139.21.1-.093.177-.128.248-.1a1.57,1.57,0,0,1,.316.174c-.046.1-.071.131-.071.106s-.022.014-.068.106a1.585,1.585,0,0,1,1.583,1.162,6.442,6.442,0,0,1,.035,2.427c0,.141.046.166.139.071v.351q0,.212-.139.212a2.09,2.09,0,0,1-.386,1.654,2.643,2.643,0,0,0-.6,1.374,3.244,3.244,0,0,1-1.056,1.194,2.8,2.8,0,0,0-.985,1.2c0,.1.046.1.141,0-.188.329-.365.669-.528,1.02a1.163,1.163,0,0,1-.811.669,2.182,2.182,0,0,1-.737.95,1.555,1.555,0,0,0-.6.669,11.8,11.8,0,0,1-1.407,1.3q-.918.739-1.268,1.091c.188-.046.574-.128,1.162-.248s1.219-.234,1.9-.351,1.3-.248,1.866-.386a4.788,4.788,0,0,0,1.2-.424,26.092,26.092,0,0,0,2.639-1.2,26.065,26.065,0,0,1,2.639-1.194h.209c.049-.234.117-.351.212-.351s.188-.1.283-.283a1.347,1.347,0,0,0,.7-.212,5.315,5.315,0,0,1,.7-.351c.046.046.035.1-.035.141s-.106.093-.106.141a2.608,2.608,0,0,0,.669-.318,2.793,2.793,0,0,1,.6-.316h.071c.141,0,.185-.071.141-.212q.278-.212.245-.245a.142.142,0,0,0-.1-.038.135.135,0,0,1-.106-.033c-.025-.025.079-.082.316-.177v.141a.882.882,0,0,1,.316-.386.938.938,0,0,0,.318-.46h.351c0-.092-.011-.141-.035-.141s-.035.025-.035.071c-.092-.093-.1-.141-.035-.141a.392.392,0,0,0,.248-.139c.188-.517.386-.811.6-.882a3.447,3.447,0,0,0,.879-.525c0,.139.025.185.071.139a.2.2,0,0,1,.141-.071.441.441,0,0,1-.071.248.418.418,0,0,0-.071.245C277.854,156.708,277.925,156.613,277.974,156.613Zm-25.411,10.064c.046-.139,0-.21-.141-.21a.388.388,0,0,0-.174.139.508.508,0,0,1-.106.141c-.1.1-.141.071-.141-.071-.1.237-.188.354-.28.354,0,.046.035.071.1.071a.242.242,0,0,0,.177-.071.424.424,0,0,1,.389.071c.163.093.245.068.245-.071v-.071c0,.046-.025-.022-.071-.212a.765.765,0,0,0,.6.141,1.3,1.3,0,0,1,.6,0,.279.279,0,0,1,.212-.283.848.848,0,0,0,.351-.209,5.668,5.668,0,0,0-1.02-.035A1.781,1.781,0,0,0,252.562,166.677Zm3.733-3.659a.426.426,0,0,0,.068-.28,11.462,11.462,0,0,0,1.583-1.058c.539-.419,1.069-.865,1.583-1.336a2.077,2.077,0,0,0,.457-.457,4.053,4.053,0,0,0,.318-.528.143.143,0,0,0,.106-.035.139.139,0,0,1,.106-.035,1.782,1.782,0,0,1,.528-.846,6.1,6.1,0,0,0,.667-.7l-.071-.071a1.657,1.657,0,0,1,.283-.422.981.981,0,0,0,.212-.492c.139,0,.223-.046.245-.141s.06-.141.106-.141a27.558,27.558,0,0,1,1.371-2.427,5.926,5.926,0,0,0,.811-2.993.8.8,0,0,0-.634.245.631.631,0,0,1-.634.177c-.046.049-.234.071-.563.071a1.092,1.092,0,0,1-.528.492.894.894,0,0,0-.386.212c0-.046-.071-.071-.212-.071a.592.592,0,0,0-.245.28c-.071.141-.2.141-.386,0a.441.441,0,0,1-.389.531,1.3,1.3,0,0,0-.316.1.285.285,0,0,0-.141.283l-.139-.141c-.1.1-.12.177-.071.248s0,.082-.142.033v-.068q-.212,0-.212.139a.089.089,0,0,0,0,.141,6.213,6.213,0,0,0-.563.634,1.276,1.276,0,0,1-.563.422.143.143,0,0,1,.035-.106.132.132,0,0,0,.035-.1c-.1-.046-.152-.038-.174.033s-.06.106-.106.106v-.071a4.977,4.977,0,0,1-.528.354.949.949,0,0,0-.389.492c.046.046.1.035.141-.035s.071-.06.071.035a1.212,1.212,0,0,1-.386.669,4.906,4.906,0,0,0-.6.528.063.063,0,0,0-.071-.071.743.743,0,0,1,.422-.386c.188-.071.21-.2.071-.389a2.271,2.271,0,0,0-.773,1.409.439.439,0,0,0-.46.316.834.834,0,0,1-.316.457c0-.093-.014-.141-.035-.141s-.035-.022-.035-.068a2.918,2.918,0,0,1-.811,1.232,2.9,2.9,0,0,0-.808,1.23v-.209a8.143,8.143,0,0,0-.528.843c-.212.375-.411.517-.6.422a.836.836,0,0,1-.035.248.56.56,0,0,0-.035.174c-.188-.044-.294,0-.316.141s-.084.166-.177.071a.293.293,0,0,1-.035.177c-.024.024-.011.1.035.245a1.834,1.834,0,0,1,1.056.563,4.721,4.721,0,0,0,.985.775h.7v-.071c.046-.093.141-.128.28-.106a.553.553,0,0,0,.354-.035v.212c.234-.093.444-.177.634-.245a2.522,2.522,0,0,0,.634-.389.721.721,0,0,0-.53.177.353.353,0,1,1,.038-.248Zm-4.084,2.536a.286.286,0,0,0,.209.071c.141,0,.212-.046.212-.141h-.316C252.2,165.483,252.162,165.507,252.211,165.553Zm.843-5.42c.141,0,.212-.166.212-.5l-.248.248C252.951,159.957,252.959,160.038,253.055,160.134Zm.422-.7a1.3,1.3,0,0,1,.177-.141c.071-.046.06-.117-.035-.212,0,.049-.046.1-.141.141S253.384,159.337,253.476,159.429Zm.424-2.536c-.046,0-.117.049-.212.141C253.923,157.035,253.993,156.989,253.9,156.893Zm-.141,10.276c.1.1.141.025.141-.209-.046.046-.084.06-.106.035S253.759,167.031,253.759,167.169Zm.212-.28a.208.208,0,0,1,.068-.141h-.068Zm1.194-.212a.814.814,0,0,0-.457,0,1.6,1.6,0,0,1-.457.071,3.749,3.749,0,0,1,.528.177C254.943,167,255.073,166.914,255.166,166.677Zm1.129-11.966v-.139c-.378.329-.74.634-1.094.914a3.552,3.552,0,0,0-.879,1.056Zm-1.48,2.816a.309.309,0,0,1,.212-.174.166.166,0,0,0,.139-.177,3.192,3.192,0,0,1-.316.139C254.733,157.364,254.72,157.435,254.815,157.527Zm.7.283c.188-.046.28-.234.28-.563C255.707,157.247,255.612,157.435,255.52,157.81Zm.142,5.7a.062.062,0,0,1-.071.071Zm.071-.141a.2.2,0,0,0-.071.141v-.141Zm1.265.283a.542.542,0,0,0-.7.245.5.5,0,0,1-.563.318.892.892,0,0,0,.667.141,1.583,1.583,0,0,0,.634-.318,4.745,4.745,0,0,0,.634-.6,2.96,2.96,0,0,1,.669-.563,1.261,1.261,0,0,0-.811.318C257.266,163.407,257.092,163.559,257,163.652Zm-1.2-7.039c0,.046.082,0,.248-.141s.2-.256.106-.351A.593.593,0,0,0,255.8,156.613Zm1.268-1.268c-.422.141-.634.375-.634.7a15.55,15.55,0,0,1,2.111-2.005q1.126-.882,2.323-1.866a17.619,17.619,0,0,0-1.97,1.477Q257.911,154.5,257.068,155.345Zm.071-2.745c.046.141,0,.212-.142.212Zm1.2,0a.525.525,0,0,1,.28-.316,1.282,1.282,0,0,0,.351-.248,1.2,1.2,0,0,1-.386.248A.336.336,0,0,0,258.336,152.6Zm0,10c.092.046.15.011.174-.106a1.367,1.367,0,0,0,.035-.248C258.4,162.242,258.336,162.362,258.336,162.6Zm.631-11.261a.52.52,0,0,1-.174.21.515.515,0,0,0-.177.212c.092,0,.152-.06.177-.177s.082-.152.174-.106Zm.071.7c.188,0,.283-.068.283-.21C259.271,151.827,259.179,151.9,259.038,152.037Zm.141-.773c.188-.1.34-.177.457-.248a1.766,1.766,0,0,0,.318-.245c-.1-.046-.223,0-.389.139S259.271,151.169,259.179,151.264Zm5.7-2.114a.347.347,0,0,1,.245.106c.071.071.152.035.248-.106a.315.315,0,0,1-.351-.068C264.928,148.987,264.882,149.011,264.882,149.15ZM265.3,159c0,.1-.025.141-.071.141Zm8.87,1.831c.185,0,.28-.139.28-.422C274.219,160.555,274.124,160.7,274.173,160.836Zm2.6-2.324a1.043,1.043,0,0,0-.212.775.6.6,0,0,1,.177-.492C276.858,158.7,276.872,158.607,276.777,158.512Zm1.126-1.477c0-.046.011-.071.035-.071s.011-.046-.035-.141Z" transform="translate(140.333 17.843)" fill="#231f20"/><path d="M273.407,160.281a.693.693,0,0,0-.422.283.307.307,0,0,0,.071.422.613.613,0,0,1,.209-.422c.049.049.014.177-.1.386a5.364,5.364,0,0,1-.386.6c-.141.188-.248.343-.318.457s-.06.084.035-.1c-.1-.046-.307.046-.634.28a6.779,6.779,0,0,0-.634.492l-.843.843c-.142.1-.386.283-.74.563s-.574.471-.669.563l-.139-.068a.156.156,0,0,1-.035.106c-.025.022-.035.082-.035.174-.046-.092-.117-.1-.212-.035s-.1.155,0,.248h-.209a2.035,2.035,0,0,1-.283.492,2.281,2.281,0,0,1-.773.7v-.283c-.1-.046-.141-.035-.141.035s-.049.131-.142.177h.212c-.049.188-.12.294-.212.316s-.209.06-.351.106c-.049,0-.035-.024.033-.071s.06-.071-.033-.071c-.1.1-.2.212-.318.354a1.873,1.873,0,0,1-.386.351c-.1-.141-.174-.163-.245-.071a.676.676,0,0,1-.248.212l-.354.141c-.139.093-.269.185-.386.28a1.18,1.18,0,0,1-.528.21.649.649,0,0,0-.071.283.063.063,0,0,1-.071-.071q0-.069-.139,0-.143.143-.351.318a1.263,1.263,0,0,1-.563.245,1.6,1.6,0,0,1-.811.7c-.354.139-.716.28-1.091.422a5.45,5.45,0,0,1-1.69.775q-.775.139-1.69.316a6.16,6.16,0,0,1-1.97.035c-.471-.1-.928-.163-1.374-.212a2.508,2.508,0,0,1-1.02-.28,3.11,3.11,0,0,1-.811-.846c-.21-.327-.386-.609-.528-.843-.139-.046-.209-.117-.209-.212a.579.579,0,0,0-.212-.351c0-.046.014-.071.035-.071s.035-.046.035-.141c-.093.1-.163.141-.212.141a.457.457,0,0,1,.106-.563c.166-.139.177-.326.035-.563a.827.827,0,0,0-.141.563.525.525,0,0,1-.139-.386c0-.163.093-.248.28-.248a2.276,2.276,0,0,1,.283-.985.293.293,0,0,0-.212.071,1.087,1.087,0,0,1,.283-.563.77.77,0,0,0,.209-.563c-.093,0-.128.049-.1.141s.011.139-.038.139c-.092-.231,0-.539.283-.914h.071c-.046.1-.093.188-.141.283s-.046.163,0,.209a.353.353,0,0,0,.177-.28.572.572,0,0,0-.035-.354,2.654,2.654,0,0,0,.174-.7.567.567,0,0,1,.389-.492c.141-.141.174-.258.1-.354s-.011-.163.177-.21a5.628,5.628,0,0,0,.248-.563,1.378,1.378,0,0,1,.316-.492,24.924,24.924,0,0,1,1.445-2.851q.877-1.514,1.583-2.922c.234-.28.444-.563.634-.843a2.267,2.267,0,0,0,.351-.914h.141c.093-.471.411-.648.95-.531a12.71,12.71,0,0,1,1.583.46.635.635,0,0,1,.422.386,1.933,1.933,0,0,1,.071.528.2.2,0,0,0-.106.245.483.483,0,0,1-.035.318,5.479,5.479,0,0,0-.7,1.619,5.561,5.561,0,0,1-.7,1.619.489.489,0,0,1-.177.209.524.524,0,0,0-.174.212,3.287,3.287,0,0,0-.248.811,3.322,3.322,0,0,1-.457,1.091q-.563,1.122-.985,2.111c-.283.658-.563,1.385-.846,2.182a16.492,16.492,0,0,1-.457,1.9,2.373,2.373,0,0,0,.316,1.831,15.428,15.428,0,0,0,2.851-1.02q1.232-.6,2.571-1.3l1.9-1.407.563-.354,2.253-1.687,1.9-1.48a7.946,7.946,0,0,1,.7-.457,6.971,6.971,0,0,0,.7-.457q.7-.563,1.126-.879t1.126-.811a.966.966,0,0,1,.316-.316c.117-.071.269-.152.46-.248l.49-.351a.9.9,0,0,1,.669-.492.884.884,0,0,0,.669-.634c.188.046.283,0,.283-.141.231.1.316.212.245.351s-.014.258.177.354a.607.607,0,0,0-.248.351,1.63,1.63,0,0,0-.106.354c.188.092.3-.014.354-.318s.141-.433.28-.386a2.514,2.514,0,0,1-.071.386q-.069.318-.139.318c.234.092.28.223.139.386a.353.353,0,0,0-.068.457,1.055,1.055,0,0,1-.212.177c-.049.022-.1.1-.142.245-.1,0-.1-.046-.035-.141s.011-.141-.174-.141a2.442,2.442,0,0,1-.141.248,1.389,1.389,0,0,0-.142.386c-.1,0-.131-.033-.106-.1a.56.56,0,0,0,.035-.177c-.234,0-.351.071-.351.21a.639.639,0,0,0-.424.424,1.559,1.559,0,0,1-.28.563c-.141,0-.188-.024-.141-.071s0-.071-.142-.071A.4.4,0,0,0,273.407,160.281Zm-9.5-11.612c-.1.046-.117.082-.071.1s.022.084-.071.177a1.736,1.736,0,0,0-.528.7.561.561,0,0,1-.669.351,1.159,1.159,0,0,0-.563.492c-.234,0-.375-.022-.422-.071s-.117-.114-.212-.21c-.234,0-.375.071-.422.21a6.215,6.215,0,0,1-1.02-.422c-.258-.141-.552-.28-.879-.422a4.366,4.366,0,0,1,.174-1.232q.175-.6,1.02-.457c.1-.093.166-.141.212-.141a.2.2,0,0,0,.141-.068,4.532,4.532,0,0,1,1.477.351,4.689,4.689,0,0,0,1.548.351C263.528,148.574,263.624,148.669,263.907,148.669Zm1.97,18.09a.476.476,0,0,0,.283-.106c.092-.071.092-.152,0-.248Zm8.236-6.829c-.046-.046-.024-.071.071-.071Z" transform="translate(161.861 16.004)" fill="#231f20"/><path d="M276.39,154.9a1.115,1.115,0,0,1-.28.035c-.1.237-.223.318-.389.248a.322.322,0,0,0-.386.035v-.071a.279.279,0,0,0-.28.141c.139.046.234.022.28-.071.046.092.082.117.106.071s.035-.024.035.068-.035.141-.106.141a.388.388,0,0,0-.245.142.569.569,0,0,1-.354-.106c-.1-.071-.21-.057-.351.035a5.48,5.48,0,0,0-.811.071c-.3.049-.574.1-.808.141a.656.656,0,0,0-.351.316c-.049.117-.12.272-.212.457a31.056,31.056,0,0,1-1.409,3.028,28.2,28.2,0,0,0-1.477,3.306c-.141.424-.245.732-.316.917a2.829,2.829,0,0,1-.212.457,2.815,2.815,0,0,0-.212.457c-.068.19-.174.517-.316.988a10.393,10.393,0,0,0-1.2,3.132q-.42,1.865-.773,3.765c-.1.422-.212.843-.354,1.268a6.219,6.219,0,0,0-.28,1.336,7.239,7.239,0,0,1-.386,1.937,2.154,2.154,0,0,0,.245,1.864c.093.046.117.06.071.035s.022-.035.212-.035a7.371,7.371,0,0,0,1.407-.174,7.116,7.116,0,0,0,1.477-.46,15.665,15.665,0,0,0,1.586-.525c.536-.212,1.042-.389,1.513-.531.093-.093.15-.128.174-.1s.035-.011.035-.106a3.019,3.019,0,0,1,.424-.106c.139-.022.234-.128.28-.318q.42-.139.669-.245a1.887,1.887,0,0,0,.422-.245,2.083,2.083,0,0,1,.386-.248,5.455,5.455,0,0,1,.634-.248v-.28c.188.141.468,0,.846-.422a.192.192,0,0,1,.139.071c.424-.283.9-.588,1.445-.917s1.042-.656,1.513-.985a3.318,3.318,0,0,0,1.126-.7c.514-.422,1.045-.89,1.583-1.407s1.02-1,1.442-1.442.68-.718.775-.811a.2.2,0,0,0,.141.071,2.4,2.4,0,0,1,.106-.492c.022-.046.044-.071.068-.071a.1.1,0,0,0,.071-.035c.024-.025.106-.128.248-.318,0-.139.022-.209.071-.209a2.06,2.06,0,0,0,.28-.212,2.323,2.323,0,0,0,.212-.28c.28.046.468-.117.563-.492a1.591,1.591,0,0,1,.667.316c.117.117.223.131.318.035a.166.166,0,0,0,.139.177,1.259,1.259,0,0,0,.283.035c0,.1-.013.139-.035.139s-.035.025-.035.071c.1.049.035.117-.174.212s-.2.166.033.209a1.062,1.062,0,0,1-.141.424c.049,0,.117.068.212.21a7.088,7.088,0,0,0-1.194,1.619h.071a.218.218,0,0,1-.141.071c-.19.188-.283.258-.283.212l-.422.351v-.139a.375.375,0,0,0-.141.245c0,.071-.046.131-.142.177a.2.2,0,0,0-.068.141.062.062,0,0,0-.071-.071.235.235,0,0,1-.106.209c-.071.046-.06.071.035.071l-.985,1.2a.634.634,0,0,0,.068-.283,1.874,1.874,0,0,1-.351.422.784.784,0,0,0-.283.5l.566-.634a1.51,1.51,0,0,1-.566.7v-.068l-.068.068a1.358,1.358,0,0,1,.139-.457c.1-.209.188-.408.283-.6a1.191,1.191,0,0,0-.354.492,2.215,2.215,0,0,1-.351.563,2.631,2.631,0,0,1-.843.6,1.764,1.764,0,0,0-.775.737,2.385,2.385,0,0,0-1.162,1.056,1.765,1.765,0,0,1-1.233.914c-.046.141-.092.226-.139.248a1.053,1.053,0,0,0-.212.177.335.335,0,0,1-.035-.248c.025-.071.011-.106-.035-.106l-.634.563a1.741,1.741,0,0,0-.6.389.821.821,0,0,1-.6.245l.071-.071a.952.952,0,0,0-.354.248c-.046.071-.082.128-.106.174a1.519,1.519,0,0,1-.1.177.609.609,0,0,1-.354.177c-.092,0-.139-.022-.139-.071a1.144,1.144,0,0,0-.528.316.816.816,0,0,1-.6.248.125.125,0,0,1,.142-.141q-.42-.069-.563.212h-.142l-1.828.985c-.375.141-.8.283-1.268.422a7.935,7.935,0,0,1-1.268.283,3.526,3.526,0,0,1-2.25.245,10.574,10.574,0,0,1-2.394-.808,15.481,15.481,0,0,0-1.477-.775,2.9,2.9,0,0,1-.985-.669,2.1,2.1,0,0,1-.492-.914,6.12,6.12,0,0,1-.142-1.513c0-.1.022-.152.071-.177s.071-.082.071-.174a10.493,10.493,0,0,1,.28-2.816q.351-1.62.7-3.028a1.746,1.746,0,0,0,.142-.634.942.942,0,0,1,.209-.563,29.477,29.477,0,0,1,.914-3.061q.563-1.583,1.2-3.063a2.683,2.683,0,0,0,.142-.386c0-.022-.025-.033-.071-.033l.28-.5q.563-1.122,1.374-2.745a16.654,16.654,0,0,0,1.162-2.884c-.188.139-.258.174-.212.1s-.046-.1-.28-.1c-.329.093-.645.2-.952.316a2.625,2.625,0,0,1-.95.177c-.375.092-.7.188-.985.28a5.111,5.111,0,0,1-.914.212,8.967,8.967,0,0,1-1.056.141h-.248a.856.856,0,0,0-.212.071c-.117.046-.457.139-1.02.28a1.374,1.374,0,0,0-1.02.141,2.059,2.059,0,0,1-1.159.209.69.69,0,0,1-.177-.106.3.3,0,0,0-.177-.033,1.055,1.055,0,0,1-.881.033,1.407,1.407,0,0,1-.525-.525.781.781,0,0,0-.142-.775,1.131,1.131,0,0,1-.283-.7l.283.212a16.2,16.2,0,0,0,2.533-.669c.7-.258,1.477-.528,2.324-.811s1.853-.563,3.025-.843a42.468,42.468,0,0,1,4.647-.773q1.408-2.885,2.887-5.281t3.1-4.927v-.351a.235.235,0,0,1,.316-.038.238.238,0,0,0,.318-.033c-.049.141-.011.223.106.245s.174.082.174.177a4.384,4.384,0,0,1,.846.283,3.637,3.637,0,0,1,.914.563,2.614,2.614,0,0,1,.634.737.822.822,0,0,1,0,.808l-.634.5a.629.629,0,0,0-.071.28,3.45,3.45,0,0,1-.669,1.162,5.136,5.136,0,0,0-.737,1.091,6.827,6.827,0,0,0-.528.985,10.764,10.764,0,0,1-.528,1.056,2.815,2.815,0,0,1-.775,1.02,1.7,1.7,0,0,0-.563,1.094q1.2-.143,2.253-.212c.7-.046,1.453-.071,2.253-.071a8.256,8.256,0,0,1,1.97-.28h1.76a2.172,2.172,0,0,0,.351-.071,2.2,2.2,0,0,0,1.232-.071,2.05,2.05,0,0,1,1.3,0,1.7,1.7,0,0,1,.457.071,1.021,1.021,0,0,0,.528,0c-.046.046-.024.046.071,0a.629.629,0,0,1,.28-.071l-.071.071a.74.74,0,0,0,.634,0,2.115,2.115,0,0,1-.245-.177,2.265,2.265,0,0,1,.528.177,11.566,11.566,0,0,1,1.407.1,2.2,2.2,0,0,1,1.409.74.276.276,0,0,1,.035.248.457.457,0,0,0,.035.316.213.213,0,0,1-.142.071c-.049,0-.071.046-.071.139.046.049.082.084.106.109a.958.958,0,0,0,.248.1.58.58,0,0,1-.424.141.832.832,0,0,0,.424.492.444.444,0,0,1-.318.141.248.248,0,0,0-.245.142.631.631,0,0,1-.283-.071,2.806,2.806,0,0,1-.881,0,1.568,1.568,0,0,0-.95.209c-.234-.139-.375-.188-.422-.139s-.141.046-.283,0c0-.1.024-.131.071-.106s.071-.011.071-.106q-.282,0-.351.106a1.7,1.7,0,0,0-.106.174.071.071,0,0,1-.106.038,1.615,1.615,0,0,1-.28-.248l-.28.142-.071.068h-.071q-.143,0-.106-.033c.025-.024.011-.06-.035-.106-.141.093-.212.163-.212.209-.1-.188-.269-.22-.528-.1s-.316.057-.174-.177c-.1,0-.155.082-.177.248s-.152.174-.386.033c.093-.188.15-.269.174-.245s.035-.011.035-.106a.546.546,0,0,0-.21.071.449.449,0,0,0-.212.28v-.209a.249.249,0,0,0-.283.28v-.209c-.139-.1-.234-.117-.28-.071a.413.413,0,0,1-.283.071q-.139-.143,0-.106a.29.29,0,0,0,.283-.106h-.351a.283.283,0,0,0-.283.141c-.283-.188-.517-.188-.7,0,.046.093.131.093.248,0s.2-.1.245,0a.746.746,0,0,1-.28.139,2.7,2.7,0,0,1-.386.106.407.407,0,0,1-.248,0c-.046-.022-.025-.082.071-.174h-.28v-.071c-.049,0-.071.022-.071.071h.071c.092.139.1.2.033.174s-.1-.057-.1-.106l-.071-.068h.071v-.071a.111.111,0,0,1-.106-.071c-.025-.046-.06-.024-.106.071.046,0,.071.011.071.035s.022.035.071.035c-.188.092-.28.174-.28.245s-.049.035-.141-.106q0-.282-.424-.245a2.747,2.747,0,0,0-.773.174v-.139a3.714,3.714,0,0,1-.528.28.5.5,0,0,1-.6-.142.529.529,0,0,1,.209-.068.208.208,0,0,0,.142-.071c0-.1-.024-.141-.071-.141a.062.062,0,0,1-.071-.071.286.286,0,0,0-.209.071.793.793,0,0,1-.212.141c-.046,0-.071-.046-.071-.141a.063.063,0,0,1,.071-.071c-.234,0-.326-.022-.28-.071-.1,0-.142.1-.142.283a.565.565,0,0,1-.141.422,4.158,4.158,0,0,0-.6.035,5.479,5.479,0,0,1-.737.035c0-.093.035-.131.1-.106s.109-.011.109-.106c-.049,0-.071-.011-.071-.035s-.027-.035-.071-.035h-.071a.125.125,0,0,1-.142.141l.142-.141A1.259,1.259,0,0,0,276.39,154.9Zm-2.182.389a.062.062,0,0,1,.071-.071.063.063,0,0,0,.071-.071C274.161,155.056,274.112,155.1,274.208,155.29Zm.212-.071c.092.092.163.117.209.071a.2.2,0,0,1,.142-.071.112.112,0,0,1,.071-.106c.046-.025.022-.082-.071-.177a.166.166,0,0,1-.142.177A.459.459,0,0,0,274.42,155.22Zm2.111-.141c-.1-.046-.1-.071,0-.071Zm3.025,20.413a5.191,5.191,0,0,1,.389-.354,1.246,1.246,0,0,0,.316-.422l-.528.354C279.524,175.209,279.464,175.35,279.557,175.492Zm.424-20.555c-.191.049-.272.06-.248.035l.177-.177C279.91,154.89,279.932,154.937,279.981,154.937Zm.492,18.582a.224.224,0,0,0,.28-.071.227.227,0,0,0,.071-.28,1.085,1.085,0,0,0-.177.21A.358.358,0,0,1,280.473,173.519Zm.071.775c.188.046.3.025.351-.071a1.114,1.114,0,0,1,.212-.283.548.548,0,0,1,.071-.351c-.1,0-.141.071-.141.212l.071.139a2.115,2.115,0,0,0-.283.177A1.767,1.767,0,0,1,280.544,174.294Zm0,.28c.046.1.128.106.245.035s.128-.152.035-.245c-.046.092-.106.131-.177.1S280.544,174.482,280.544,174.575Zm.7.283a1.066,1.066,0,0,1,.454-.46,2.427,2.427,0,0,0,.528-.316v.071a2.676,2.676,0,0,0-.528.354A5.056,5.056,0,0,1,281.249,174.858Zm.139-1.339c.046.049.071,0,.071-.141A.2.2,0,0,1,281.388,173.519Zm.843.492a2.378,2.378,0,0,0-.56.141,1.586,1.586,0,0,1,.457-.422c.21-.141.386-.258.528-.354l-.424.634h.071a.062.062,0,0,1-.071.071Zm3.45-4.293c-.046,0,0-.071.141-.21v-.071l-.141.071a2.714,2.714,0,0,1-.316.386c-.117.117-.223.223-.318.316V170a.916.916,0,0,0-.21.7l.141-.141h-.071l.071-.283a.287.287,0,0,1,.21.071c0-.141.092-.258.283-.351l.21-.354Zm-.563.7a.124.124,0,0,0-.139.141Zm1.058-16.683a.236.236,0,0,1-.318.035.238.238,0,0,0-.316.035,1.252,1.252,0,0,0,.422.106C286.149,153.941,286.22,153.881,286.176,153.739Zm-.5,16.12-.068.071C285.656,169.93,285.681,169.909,285.681,169.86Zm0,0c.1-.092.141-.163.141-.212l-.141.141Z" transform="translate(170.986 7.271)" fill="#231f20"/></g></svg>