<svg xmlns="http://www.w3.org/2000/svg" width="32.752" height="38.964" viewBox="0 0 32.752 38.964"><path d="M111.072,100.163l-.026-1.114A5.591,5.591,0,0,1,111.072,100.163Zm-.051-2.51a3.37,3.37,0,0,0,0,.366Zm.006-.585c0-.316,0-.644-.012-.987C111.005,96.463,111.013,96.788,111.028,97.067Zm0,0-.006.585c.007-.19.031-.161.051-.028C111.055,97.464,111.039,97.277,111.028,97.067Zm.093.918-.048-.361Zm.2,3.8c.057-3.805.449-7.08.608-10.963-.248-1.158-.486,5.379-.4,6.316A34.178,34.178,0,0,0,111.316,101.783Zm-2.52,5.757a2.947,2.947,0,0,0,2.2-1.943c-.3.784.161-.263.131-.5a3.011,3.011,0,0,1-2.008,2.337A2.7,2.7,0,0,0,108.8,107.54Zm-.617.062a3.258,3.258,0,0,0,.617-.062,3.537,3.537,0,0,1-.6.06Zm3.161-13.869a29.467,29.467,0,0,1-.066-4.2c.16.268.079,1.342-.014.521a25.707,25.707,0,0,1,.117,3.1c-.111-1.8.708-4.054.158-5.555l.065,1.114-.065-1.114a.571.571,0,0,1,.239.3c-.644-6.1,3.078-8.212-4.763-7.332-5.39-.6,2.176-.273,3.823-.242-9.9-.07-21.387-.733-30.868.64,2.549,24.469-9.8,30.312,17.868,27.013,4.324-.348,5.908-.257,9.627-.379a231.952,231.952,0,0,0-24.059-.886c-4.437-.532-1.891-20.052-2.618-24.628.04-.179-.111-.691.23-.565,8.194.115,16.272.176,24.5.012-1.427-.282-2.579.074-4.132-.031,1.442-.193,2.732-.237,4.139-.3-.836.149-1.444-.166-2.257.188a32.555,32.555,0,0,0,4.195.089l-.081.022c1.04-.139,2.452-.02,3.6-.067.182.034.035.678.087.859.127-.692.112-1.038-.688-.937,1.021-.17.649.323.9,1.033-.593.943.086,6.78-.145,9.574C111.133,91.968,111.26,93.308,111.339,93.733Zm-1.474-12.3c.544.045,1.489-.29,1.231.589l.018-.476C111.138,81.146,110.126,81.394,109.865,81.433ZM80.425,99.049l.025,1.114A5.546,5.546,0,0,0,80.425,99.049Zm-.025-1.4a3.368,3.368,0,0,0,0,.366Zm.006-.585c0-.316,0-.644-.012-.987C80.384,96.463,80.391,96.788,80.406,97.067Zm0,0-.006.585c.007-.19.031-.161.051-.028C80.433,97.464,80.417,97.277,80.406,97.067Zm.045.558.048.361Zm.244,4.158c.057-3.805.449-7.08.607-10.963-.248-1.158-.486,5.379-.4,6.316A34.174,34.174,0,0,0,80.695,101.783Zm2.277,5.759a3.1,3.1,0,0,1-2.241-1.93c.335.778-.111-.281-.134-.507a3.022,3.022,0,0,0,2.042,2.365A1.533,1.533,0,0,0,82.972,107.542Zm.617.065a3.955,3.955,0,0,1-.617-.065,3.469,3.469,0,0,0,.6.065ZM80.718,93.733a29.383,29.383,0,0,1-.066-4.2c.16.268.079,1.342-.014.521a25.824,25.824,0,0,1,.116,3.1c-.111-1.8.708-4.054.159-5.555l.065,1.114L80.913,87.6a.571.571,0,0,1,.239.3c.157-1.913-.166-4.264.237-5.922a8.346,8.346,0,0,0,3.368.037c5.136.524-1.336.384-2.96.216,9.345.419,19.268.23,28.737-.282.073,7.613.975,16.769-1.021,24.106-5.2.533-10.269.887-15.188,1.286-1.5.031-2.14.024-.392-.119-4.324.35-5.908.256-9.627.379A231.513,231.513,0,0,0,108,108.5c4.048.283,4.253-4.012,3.814-6.986-.4-6.766-.491-13.474-.4-20.428-8.41-.148-16.707-.19-25.154-.031,1.426.282,2.578-.074,4.131.031-1.441.193-2.731.237-4.139.3.836-.149,1.444.166,2.257-.188a32.554,32.554,0,0,0-4.195-.09l.082-.022c-1.112.142-2.659.016-3.875.058-.214.055-.016.831-.073,1.055.025-.754-.024-1.178.886-.97-1.17-.15-.819.366-.673,1.211-.487-.882.011,7.721-.142,9.53C80.511,91.968,80.638,93.308,80.718,93.733ZM81.87,81.156l-1.4.02c-.032.1.01.592,0,.729l.019-.509C80.556,80.992,81.547,81.4,81.87,81.156Zm21.361-2.4.063.271C103.422,78.912,103.285,78.843,103.23,78.753Zm-.065-.343a.126.126,0,0,0,0,.093Zm0-.15a.671.671,0,0,0-.05-.242A.5.5,0,0,0,103.165,78.261Zm0,0v.15c.013-.055.053-.051.094-.028A.406.406,0,0,1,103.165,78.261Zm.2.193c-.022-.012-.062-.05-.1-.071A.569.569,0,0,0,103.36,78.454Zm.722.863a12.636,12.636,0,0,0-.309-2.93c-.215-.331-.244.795.069.9.13.246-.171.753.19.795C103.946,78.632,103.8,78.889,104.082,79.317Zm-.26,1.82a1.222,1.222,0,0,0-.183-.772c.141.206.162-.1,0-.132-.149.313.127.548.013.824C103.686,81.127,103.759,81.122,103.822,81.137Zm-.012.158.032-.153-.02,0-.017.153Zm-.391-3.978c-.136-.272-.461-.528-.45-.991.165-.011.225.293.034.13a1.659,1.659,0,0,1,.412.706c-.146-.378.132-1.532-.4-1.4.045.074.139.166.185.241-.046-.075-.14-.167-.185-.241a.611.611,0,0,1,.256-.024c-.16-.644-.622-.837-.621-1.636-.426-.028-.308-.847-.861-.908-.636-1.491.548.141.761.612-5.167-7.958-15.332-2.531-15.193,4.519-.016,1.389.186,3.958,2.033,2.25-.58-6.4,6.011-11.726,11.468-7.05-.067-.15-.045-.359-.272-.282.055-.338-.4-.107-.485-.4.317-.005.441.271.735.21.16-.014.01.321.245.256-.255-.065-.149-.375-.543-.263a.3.3,0,0,1,.047.2c.3-.041.3.5.638.6l-.029,0c.34.184.5.611.761.919,0-.165-.133-.241-.191-.4.111.145.185.316.385.329-.449.017.872,1.611.882,2.274A2.414,2.414,0,0,0,103.419,77.317Zm-1.787-3.026c.1.13.214.256.308.395l-.05-.115C101.837,74.432,101.774,74.3,101.632,74.291ZM87.883,78.626l-.042.288C88,78.85,87.9,78.734,87.883,78.626Zm.081-.355a.139.139,0,0,0-.039.09Zm.063-.142a.878.878,0,0,0,.07-.248A.481.481,0,0,0,88.027,78.128Zm0,0-.063.142c.035-.047.07-.024.1.014A.426.426,0,0,1,88.027,78.128Zm.1.264c-.015-.02-.036-.073-.062-.109A.527.527,0,0,0,88.122,78.393Zm.375,1.045a15.8,15.8,0,0,1,1.033-2.5c.027-.343-.675.369-.44.681-.022.247-.514.541-.2.722C88.581,78.77,88.356,78.964,88.5,79.438Zm-.578,1.7a1.5,1.5,0,0,0-.094-.8c.1.229.176-.071.025-.132-.209.295.039.564-.1.838C87.784,81.121,87.857,81.118,87.919,81.136Zm-.016.16.036-.153-.02-.006-.021.154Zm.811-3.87c.024-.3-.074-.7.241-1.038.13.1-.018.365-.059.119a2.071,2.071,0,0,1-.1.791c.1-.434,1.032-.991.589-1.257-.02.079-.017.2-.036.283.02-.079.016-.2.036-.283a.7.7,0,0,1,.2.168c.349-.483.2-.938.9-1.215-.187-.352.6-.443.511-.9,1.227-.481-.019.386-.3.751,2.509-3.008,8.72-2.929,10.466.907.093.573,2.8,3.283,1.534,2.922,5.685,10.485,1.486-16.158-12.1-5.464.154-.087.362-.043.313-.276.323.078.183-.409.521-.423-.1.306-.391.376-.355.69.005.15-.332-.016-.258.229.052-.261.369-.122.3-.525a.316.316,0,0,1-.206.029c-.006.3-.554.312-.62.687l0-.03c-.132.373-.513.646-.676,1.044.146-.079.16-.234.3-.34-.108.151-.228.294-.15.484-.23-.539-.951,1.689-1.154,2.146A1.637,1.637,0,0,0,88.714,77.425Zm1.212-3.286c-.091.146-.185.289-.263.442.03-.037.058-.071.083-.1C89.852,74.376,89.965,74.279,89.926,74.139Z" transform="translate(-79.354 -69.863)" fill="#090808"/></svg>